<?xml version="1.0" standalone="no"?>
<svg version="1.1" id="Layer_1_15_" xmlns="http://www.w3.org/2000/svg" xmlns:xlink="http://www.w3.org/1999/xlink" x="0px" y="0px" viewBox="0 0 595.276 595.276" enable-background="new 0 0 595.276 595.276" xml:space="preserve">
<path id="color_x5F_7" fill="#E96257" d="M103.665,311.432c4.11,0,8.319-0.427,11.437-2.4
	c-1.227,4.338-5.014,8.136-10.741,7.931c-4.725-0.186-6.517-4.087-7.064-5.729c1.687,0.082,3.662,0.164,5.275,0.19
	C102.935,311.429,103.299,311.432,103.665,311.432z M470.892,249.845c0.131-0.029,0.316-0.106,0.417-0.436
	c0.244-0.801-0.216-2.459-1.263-3.627c-0.105-0.022-0.271-0.05-0.449-0.05c-0.194,0-0.456,0.033-0.603,0.192
	c-0.171,0.186-0.183,0.53-0.162,0.786C468.988,248.671,469.872,250.074,470.892,249.845z M385.132,300.423
	c0.198,0.241,0.468,0.353,0.848,0.353c0.448,0,1.011-0.16,1.679-0.476l-2.921-1.798
	C384.703,299.145,384.759,299.969,385.132,300.423z M240.515,296.263c-0.068,0.008-0.135,0.012-0.201,0.012
	c-0.514,0-0.931-0.231-1.146-0.449l-3.399-3.124c6.507,15.742,13.819,31.806,15.514,32.665c0.396,0.186,1.009,0.431,1.77,0.734
	c4.839,1.935,16.057,6.406,15.984,13.883l6.301-0.017c0.141-3.104,0.363-16.474-5.973-19.503
	c-7.403-3.539-15.213-2.776-15.292-2.769c-0.281,0.033-0.563-0.12-0.695-0.377l-11.29-22.007
	C241.585,295.867,241.06,296.2,240.515,296.263z M235.589,279.211l-7.036-13.465c-0.833,5.549-0.87,8.985-0.86,9.947l11.477,10.873
	c0.023-0.111,0.052-0.229,0.081-0.346l-3.546-6.786C235.654,279.368,235.615,279.294,235.589,279.211z M220.986,317.313
	c-0.347,0.142-0.749-0.016-0.904-0.361c-8.811-19.635-25.861-57.317-27.321-59.393l-0.091-0.129c-1.756-2.5-4.391-6.25-16.043-3.604
	l17.641,42.878c0.093,0.147,0.163,0.31,0.2,0.485l17.667,42.942l28.413-0.074c0.353-1.667,1.938-10.817-3.743-18.41
	C230.686,313.47,221.38,317.153,220.986,317.313z M398.407,333.683c0.246-0.097,0.528-0.049,0.727,0.129
	c0.198,0.178,0.278,0.452,0.208,0.708c-0.193,0.697-1.273,4.46-3.005,7.896c2.572,3.023,6.316,4.759,10.288,4.759
	c7.449,0,13.51-6.061,13.51-13.51c0-7.449-6.061-13.51-13.51-13.51c-7.449,0-13.51,6.06-13.51,13.51
	c0,0.693,0.068,1.384,0.172,2.065L398.407,333.683z"></path>
<path id="color_x5F_6" fill="#1ACEBD" d="M80.481,274.912c-0.697,1.804-2.723,2.859-3.517,3.215l-4.044-0.005l2.959-3.684
	c0.242-0.302,0.194-0.742-0.107-0.984c-0.301-0.24-0.741-0.192-0.984,0.107l-3.414,4.191c-0.074,0.092-0.112,0.248-0.133,0.248
	h-0.302l1.402-1.902c0.225-0.315,0.152-0.723-0.163-0.947c-0.312-0.224-0.751-0.191-0.976,0.123L69.22,278h-2.477
	c1.695-1,4.401-4.504,5.604-8.619c0.66-0.346,2.789-1.268,4.791-0.715c1.214,0.338,2.197,1.205,2.921,2.577
	C80.764,272.579,80.906,273.813,80.481,274.912z M204.333,388.578c-0.735-1.518-7.552-14.998-17.077-13.766
	c-5.933,0.769-11.388,5.649-11.912,10.659c-0.392,3.751,2.172,6.792,7.221,8.561c0.039,0.014,0.066,0.041,0.101,0.06l8.153,0.064
	l-3.762-6.645c-0.19-0.336-0.072-0.764,0.265-0.954c0.335-0.191,0.763-0.072,0.954,0.265l3.991,7.049
	c0.053,0.095,0.077,0.195,0.084,0.297l1.533,0.012c-0.055-0.081-0.1-0.17-0.117-0.273l-1.307-7.844
	c-0.064-0.382,0.194-0.742,0.575-0.806c0.379-0.067,0.742,0.193,0.806,0.575l1.307,7.844c0.031,0.188-0.017,0.369-0.117,0.513
	l10.232,0.08c-0.783-1.434-0.934-3.441-0.958-4.411C204.296,389.451,204.309,389.018,204.333,388.578z M71.14,268.678
	c0.641-2.511,0.656-5.462-0.605-8.775c-1.887-4.96-6.586-8.154-12.262-8.316c-4.864-0.135-11.143,2.069-14.133,8.753
	C39.168,271.447,48.646,277,49.748,278h3.258l-2.052-6.83c-0.11-0.371,0.1-0.727,0.471-0.838c0.368-0.107,0.76,0.076,0.871,0.445
	L54.468,278h0.155l0.558-4.143c0.051-0.383,0.406-0.601,0.786-0.552c0.383,0.052,0.653,0.403,0.602,0.787l-0.534,4.009l8.542,0.01
	c0.743-0.539,5.049-3.852,6.509-9.214C71.092,268.821,71.11,268.748,71.14,268.678z M274.434,382.014
	c-1.375-0.602-2.548-0.682-3.488-0.236c-1.434,0.677-1.934,2.381-1.939,2.399c-0.1,0.351-0.455,0.566-0.814,0.494
	c-0.359-0.073-0.601-0.41-0.554-0.773c0.074-0.573,1.602-14.082-15.47-19.364c-6.528-2.021-11.827-1.692-15.75,0.973
	c-3.981,2.703-5.179,6.977-5.222,7.528c-0.022,0.29-0.224,0.536-0.503,0.617c-0.281,0.081-0.582-0.021-0.756-0.254
	c-0.164-0.219-4.063-5.322-9.616-2.459c-3.752,1.936-4.927,4.949-5.293,6.573c-0.387,1.716-0.168,3.167,0.248,3.714
	c0.163,0.214,0.189,0.503,0.066,0.743c-0.123,0.24-0.363,0.391-0.642,0.381c-0.05-0.007-5.262-0.122-7.403,1.537
	c-0.988,0.765-1.657,3.262-1.591,5.936c0.053,2.163,0.581,3.907,1.347,4.46l68.639,0.533c0.003-0.012,0-0.024,0.003-0.036
	C276.588,391.773,278.105,383.619,274.434,382.014z M373.107,278.261c0.643-0.931,1.494-1.647,2.638-2.512
	c0.45-0.34,0.9-0.62,1.35-0.853c0.062-0.04,6.162-4.114,7.482-10.927c0.82-4.235-0.352-8.679-3.483-13.181
	c-3.633-5.222-9.007-4.87-12.824-2.77c-4.832,2.657-8.358,8.525-5.833,14.739c1.108,0.958,2.21,2.22,3.073,4.216
	c2.154,4.982,0.965,10.025,0.204,11.025h2.538l1.556-10.718c0.056-0.384,0.411-0.49,0.792-0.434
	c0.383,0.055,0.649,0.303,0.595,0.685L369.666,278h0.284l2.256-6.912c0.116-0.367,0.506-0.413,0.88-0.294
	c0.368,0.117,0.571,0.404,0.454,0.772L371.42,278h1.453C372.956,278,373.033,278.234,373.107,278.261z M359.233,262.514
	c-1.779-0.698-3.519-0.598-4.452-0.189c-1.149,0.504-5.482,3.141-5.697,6.838c-0.176,3.041,2.4,6.155,7.652,9.258l2.457,0.002
	l-3.271-6.541c-0.173-0.347-0.033-0.767,0.312-0.939c0.349-0.175,0.768-0.032,0.939,0.312l3.324,6.648l-0.527-4.491
	c-0.045-0.385,0.23-0.732,0.613-0.777c0.39-0.038,0.731,0.23,0.777,0.613l0.607,5.176l2.217,0.002
	c0.564-1.243,2.215-5.646,0.037-10.684C362.817,264.491,360.734,263.104,359.233,262.514z M347.725,270.18
	c-0.351-0.501-2.267-2.964-5.535-2.042c-2.251,0.633-5.12,3.236-5.805,6.104c-0.391,1.634,0.008,3.02,1.168,4.154l6.96-0.009
	l-2.818-3.131c-0.26-0.286-0.238-0.781,0.048-1.041c0.287-0.259,0.728-0.345,0.989-0.056l3.674,3.84h0.267l-1.299-2.406
	c-0.172-0.346-0.031-0.559,0.315-0.73c0.345-0.173,0.767-0.03,0.939,0.315l1.609,3.237l5.875,0.004
	C350.176,275.746,348.039,272.984,347.725,270.18z"></path>
<path id="color_x5F_5" fill="#fbfafa" d="M204.895,245.948c-1.163-6.578-2.712-15.48-2.864-17.098
	c-0.095-1.013-0.177-3.518,1.105-4.894c0.646-0.694,1.553-1.021,2.764-0.989c1.241,0.029,2.136,0.351,2.66,0.956
	c0.647,0.748,0.537,1.735,0.537,1.739c-0.038,0.284,0.1,0.563,0.35,0.704c0.249,0.14,0.561,0.116,0.783-0.064
	c0.5-0.403,1.214-0.744,1.405-0.685c0.141,0.421-0.7,2.164-1.763,3.656c-0.098,0.138-0.143,0.307-0.127,0.475l1.281,13.027
	c-1.021,0.578-1.57,1.594-1.553,2.897L204.895,245.948z M93.373,310.966c-0.253-0.118-0.424-0.379-0.405-0.676
	c0.006-0.104,0.039-0.2,0.085-0.288c-2.34-1.39-3.714-3.773-4.327-5.082c-0.378,0.355-0.694,0.725-0.906,1.11
	c-1.24,2.254,0.283,9.823,1.089,13.039c0.692,0.139,2.387,0.328,4.67-0.334C93.661,316.63,93.575,313.68,93.373,310.966z
	 M109.014,277.675c-2.344-4.146-3.596-8.3-3.934-9.515c-2.784-1.277-6.067-5.344-7.309-6.975c-1.068,0.961-2.929,2.137-4.18,2.888
	c-0.079,0.907-0.111,1.86-0.058,2.885c0.272,5.26,2.663,9.679,6.238,11.532C102.556,279.934,105.747,279.64,109.014,277.675z
	 M79.283,289.696c-0.021,0.46,0.084,0.595,0.106,0.617c0.131,0.136,0.397,0.021,0.398,0.02c0.067-0.021,0.136-0.03,0.205-0.03
	c0.193,0,0.382,0.08,0.517,0.225c0.182,0.196,0.241,0.479,0.144,0.729c-0.224,0.576-0.693,2.321-0.181,3.446
	c0.212,0.466,0.572,0.788,1.1,0.979c0.533,0.192,1.019,0.296,1.443,0.296c1.154,0,1.507-0.727,1.51-0.734
	c0.118-0.27,0.384-0.412,0.685-0.398c0.013,0,1.329,0.121,3.28,0.121c0.78,0,1.679,0.035,2.65,0.035c0,0,0.001,0,0.002,0
	c4.257,0,9.904-0.853,13.069-2.843c4.289-2.695,6.456-5.036,6.624-6.983c0.092-1.068-0.412-2.099-1.54-3.147
	c-0.091-0.023-0.296-0.064-0.621-0.064c-0.826,0-2.681,0.278-5.831,2.141c-5.38,3.182-12.607,4.847-14.973,4.847
	c-0.085,0-0.165-0.002-0.241-0.006c-0.796-0.041-1.861-0.087-3.036-0.087C79.726,288.856,79.285,289.688,79.283,289.696z
	 M212.615,243.69c0.255-0.042,0.501-0.064,0.73-0.064c2.947,0,3.116,3.722,3.122,3.88c0.013,0.364,0.304,0.659,0.668,0.675
	c5.713,0.263,8.453-3.744,9.428-5.649c3.161,2.885,6.476,3.555,8.318,3.683c-0.591,0.964-1.248,2.48-1.248,4.451
	c0,2.973-1.865,6.881-4.879,8.012c-1.238,0.464-2.994,0.741-4.697,0.741h-0.001c-2.473,0-6.922-0.573-8.937-4.412
	c-1.557-2.966-0.967-4.753-0.964-4.763c0.081-0.215,0.001-0.454-0.129-0.643c-0.131-0.189-0.395-0.3-0.625-0.3
	c-1.051,0-2.4-1.826-2.532-3.428C210.766,244.635,211.354,243.901,212.615,243.69z M222.026,254.545
	c0.522,0.521,1.26,0.783,2.201,0.783c0.406,0,0.849-0.048,1.33-0.146c0.379-0.077,0.623-0.446,0.547-0.825
	c-0.077-0.379-0.446-0.619-0.825-0.547c-0.758,0.152-1.765,0.234-2.259-0.252c-0.491-0.483-0.334-1.411-0.332-1.424
	c0.074-0.377-0.172-0.744-0.549-0.82c-0.376-0.074-0.748,0.169-0.824,0.549C221.3,251.929,220.996,253.517,222.026,254.545z
	 M235.569,229.418l-0.515,3.81c0.488,0.207,0.995,0.325,1.569,0.451c0.851,0.187,1.813,0.402,2.9,0.996
	c1.167-5.41,1.251-8.948,0.219-10.475c-0.326-0.482-0.754-0.751-1.346-0.843c-1.977-0.308-2.494,2.147-2.515,2.251
	c-0.048,0.241-0.22,0.439-0.452,0.521c-0.232,0.082-0.49,0.037-0.68-0.12c-0.185-0.152-0.334-0.263-0.453-0.343
	c0.134,0.729,0.617,2.091,1.211,3.359C235.566,229.149,235.587,229.285,235.569,229.418z M436.318,261.693
	c-0.298,0.045-2.935,0.534-2.588,3.609c0.101,0.893,0.496,1.581,1.207,2.104c1.748,1.281,5.294,1.485,9.983,0.572
	c5.719-1.113,12.59-7.406,13.56-8.317l0.821-8.676c0.004-0.036,0.022-0.066,0.03-0.1c-0.005-0.008-0.009-0.016-0.013-0.023
	c-2.735,2.035-13.176,9.527-19.817,10.457c-0.289,0.046-0.583-0.108-0.719-0.373c-0.402-0.779-1.586-2.43-2.426-2.26
	c-0.089,0.018-0.141,0.042-0.154,0.072c-0.13,0.303,0.215,1.237,0.61,1.87c0.125,0.201,0.141,0.452,0.041,0.667
	C436.755,261.51,436.554,261.66,436.318,261.693z M399.153,286.009c1.617,2.979,1.466,7.783-0.449,11.598
	c-1.282,2.553-4.467,6.855-11.384,6.989c-4.627,0.088-7.664-1.277-9.658-3.021c-0.036-0.048-0.086-0.085-0.135-0.122
	c-3.102-2.805-3.58-6.506-3.608-6.758c-0.023-0.205-0.136-0.39-0.307-0.504c-0.117-0.077-0.253-0.118-0.39-0.118
	c-0.064,0-0.13,0.01-0.193,0.027c-2.367,0.689-4.061-0.862-4.626-2.591c-0.514-1.568-0.215-3.728,2.315-4.655
	c1.346-0.492,2.486-0.473,3.383,0.064c1.784,1.063,2.201,3.819,2.205,3.847c0.019,0.129,0.073,0.251,0.156,0.35
	c1.007,1.206,2.211,1.79,3.603,1.728c3.234-0.141,6.408-3.892,7.472-5.276C389.227,288.382,394.332,290.252,399.153,286.009z
	 M389.167,300.341c0.003-0.176-0.088-0.34-0.238-0.433l-4.334-2.667c-0.14-0.085-0.311-0.099-0.462-0.032
	c-0.149,0.065-0.258,0.199-0.29,0.36c-0.047,0.235-0.432,2.331,0.516,3.486c0.386,0.471,0.947,0.721,1.621,0.721
	c0.798,0,1.759-0.33,2.936-1.009C389.069,300.679,389.164,300.517,389.167,300.341z M379.862,306.579
	c1.419,0.412,2.559,0.378,3.384-0.101c0.349-0.201,0.596-0.459,0.771-0.699c-2.812-0.409-4.952-1.391-6.564-2.624
	c-0.11,0.498-0.157,1.147,0.104,1.749C377.888,305.667,378.663,306.23,379.862,306.579z M458.725,242.665
	c0.209,0.11,0.457,0.108,0.663-0.004c0.206-0.113,0.343-0.322,0.361-0.557l0.084-1.016c6.635,0.551,13.813-3.588,16.324-5.193
	c0.389,1.99,1.458,6.111,3.818,7.518c0.162,0.096,0.355,0.124,0.539,0.075c0.183-0.049,0.337-0.169,0.43-0.334
	c0.718-1.277,1.931-2.618,2.458-2.538c0.032,0.006,0.199,0.052,0.4,0.408c0.018,0.048,0.042,0.094,0.07,0.136
	c0.162,0.336,0.337,0.881,0.477,1.761c0.252,1.575,0.035,2.663-0.645,3.236c-1.109,0.933-3.366,0.446-4.144,0.18
	c-0.211-0.072-0.445-0.038-0.629,0.09c-0.183,0.128-0.294,0.337-0.299,0.561c-0.001,0.078-0.027,0.73-0.292,1.605
	c-0.008,0.021-0.016,0.04-0.021,0.062c-0.567,1.81-2.173,4.527-6.756,5.202c-3.856,0.569-7.232-0.145-9.517-2
	c-1.422-1.155-2.256-2.659-2.35-4.233c-0.014-0.224-0.134-0.427-0.322-0.548c-0.114-0.073-0.245-0.11-0.377-0.11
	c-0.087,0-0.173,0.016-0.256,0.049c-0.017,0.006-1.571,0.588-2.623,0.045c-0.471-0.242-0.779-0.683-0.943-1.346
	c-0.32-1.288-0.046-2.421,0.735-3.032C456.642,242.113,457.667,242.105,458.725,242.665z M467.835,246.79
	c0.162,2.032,1.097,4.083,2.815,4.083c0.151,0,0.305-0.018,0.458-0.051c0.563-0.126,0.975-0.524,1.157-1.122
	c0.394-1.291-0.306-3.36-1.591-4.711c-0.059-0.062-0.133-0.107-0.214-0.133c-0.041-0.013-0.413-0.124-0.864-0.124
	c-0.564,0-1.027,0.178-1.338,0.514C467.924,245.608,467.781,246.128,467.835,246.79z M470.146,257.295
	c0.59-0.457,0.926-1.336,1.095-1.993c-0.745,0.089-1.479,0.145-2.189,0.145c-0.77,0-1.517-0.053-2.234-0.157
	c0.127,0.752,0.566,2.069,2.113,2.284C469.407,257.64,469.804,257.56,470.146,257.295z M502.351,257.759
	c-0.014-0.03-0.065-0.055-0.154-0.072c-0.847-0.164-2.024,1.479-2.425,2.259c-0.136,0.266-0.429,0.418-0.72,0.374
	c-6.576-0.921-16.88-8.278-19.737-10.398c-0.056,0.128-0.111,0.256-0.176,0.387l0.991,8.405c1.126,1.051,7.869,7.168,13.504,8.265
	c4.689,0.912,8.235,0.709,9.983-0.572c0.711-0.523,1.106-1.211,1.207-2.104c0.355-3.157-2.468-3.593-2.588-3.609
	c-0.234-0.033-0.437-0.183-0.536-0.397c-0.101-0.214-0.085-0.465,0.04-0.666C502.135,258.993,502.48,258.058,502.351,257.759z
	 M366.494,314.005c3.637,1.831,6.876,1.858,8.668,0.072c0.543-0.541,0.744-1.121,0.632-1.825
	c-0.602-3.777-9.696-9.194-13.502-11.153c-1.433,1.314-2.518,2.788-2.745,4.337C359.159,308.084,362.211,311.848,366.494,314.005z"></path>
<path id="color_x5F_4" fill="#00CEC9" d="M239.843,294.484c-0.839-3.127,0.452-6.176,0.465-6.206
	c0.002-0.005,0.001-0.01,0.003-0.015c0.028-0.066,0.048-0.138,0.053-0.213c0.057-0.783,0.451-3.152,1.473-3.746
	c0.123-0.073,0.499-0.29,1.255,0.069c0.486,0.232,0.801,0.605,0.961,1.143c0.645,2.158-1.238,6.119-2.452,8.12
	c-0.626,1.031-1.067,1.206-1.229,1.233c-0.131,0.023-0.209-0.031-0.233-0.052l-0.293-0.27
	C239.844,294.527,239.849,294.506,239.843,294.484z M116.808,307.681c-0.864,6.279-5.823,10.69-11.99,10.69
	c-0.17,0-0.34-0.004-0.512-0.011c-6.079-0.238-8.072-5.756-8.492-7.204c-0.383-0.02-0.728-0.039-1.027-0.057
	c0.243,3.344,0.573,10.11-0.609,11.377c-1.18,1.265-8.311,3.488-10.967,3.488c-0.144,0-0.274-0.006-0.39-0.02
	c-0.535-0.062-0.904-0.264-1.095-0.6c-0.137-0.239-0.254-0.644-0.034-1.213c0.604-1.561,3.843-3.999,5.813-4.905
	c-0.527-2.133-1.988-8.595-1.4-12.265c-0.032-0.044-0.062-0.09-0.084-0.143c-0.406-1.037-1.51-2.891-2.244-4.08
	c-1.812,3.732-4.798,6.392-8.684,7.774l0.815,7.035l7.483-3.194c0.357-0.151,0.767,0.013,0.919,0.369
	c0.151,0.355-0.014,0.767-0.369,0.918l-8.048,3.435c-0.111,0.15-0.278,0.259-0.479,0.282c-0.027,0.003-0.055,0.005-0.082,0.005
	c-0.027,0-0.052-0.012-0.079-0.015l-15.373,6.562c-0.147,0.064-3.671,1.648-2.917,5.191c0.692,3.251,4.456,2.879,5.047,2.8
	l19.392-7.886c0.096-0.039,0.2-0.051,0.303-0.051l23.064,1.299c-0.121-0.992-0.136-1.677-0.137-1.774
	c-0.003-0.387,0.307-0.492,0.693-0.492c0.002,0,0.005,0,0.007,0c0.383,0,0.696,0.094,0.7,0.479c0,0.08,0.146,8.117,4.968,10.74
	c3.767,2.051,8.885,1.227,11.643,0.139c0.14-0.149,0.328-0.22,0.519-0.216c0.599-0.274,1.04-0.554,1.266-0.8
	c0.261-0.286,0.704-0.329,0.989-0.068c0.285,0.262,0.303,0.691,0.042,0.976c-0.228,0.248-0.572,0.5-1.003,0.746
	c2.284,1.788,6.707,4.683,9.334,4.004c0.885-0.227,1.507-0.851,1.902-1.909c2.255-6.053-6.214-9.742-6.3-9.779
	c-0.229-0.097-0.388-0.308-0.42-0.554c-1.903-14.754-8.436-21.529-10.501-23.335C118.005,306.288,117.45,307.042,116.808,307.681z
	 M83.336,300.113c0.121-0.367,0.519-0.566,0.885-0.443c0.367,0.122,0.565,0.518,0.443,0.885c-0.069,0.207-0.148,0.404-0.223,0.605
	c0.439,0.69,1.557,2.479,2.318,3.943c0.428-0.672,1.043-1.285,1.759-1.834c0.014-0.014,0.03-0.023,0.044-0.035
	c1.398-1.061,3.137-1.882,4.515-2.432l-2.312-4.56c-0.825,0.026-1.598,0.038-2.276,0.038c-1.367,0-2.413-0.037-2.955-0.062
	c-0.366,0.47-1.133,1.146-2.52,1.146c-0.587,0-1.233-0.125-1.919-0.373c-0.891-0.321-1.53-0.899-1.901-1.719
	c-0.543-1.199-0.355-2.649-0.132-3.581c-0.265-0.076-0.497-0.215-0.685-0.412c-0.359-0.376-0.525-0.93-0.493-1.646
	c0.068-1.507,2.138-2.179,6.711-2.179c0.181,0,0.355,0.003,0.532,0.005c-1.038-1.162-3.273-3.218-6.016-3.096
	c-3.625,0.143-5.602,1.58-6.609,4.808c-0.081,0.26-0.306,0.448-0.575,0.484c-0.098,0.014-9.81,1.398-12.905,8.61
	c-1.28,2.982-1.048,5.864,0.653,8.114c0.969,1.28,2.346,2.242,3.98,2.889c1.136-0.225,7.295-1.658,10.063-6.77
	c0.185-0.341,0.61-0.467,0.949-0.282c0.34,0.184,0.466,0.608,0.282,0.948c-2.161,3.99-6.039,5.93-8.638,6.825
	c1.483,0.236,3.091,0.268,4.787,0.046C77.126,309.25,81.472,305.725,83.336,300.113z M217.808,246.793
	c5.919-0.091,7.843-5.625,7.862-5.682c0.078-0.232,0.271-0.406,0.509-0.46c0.24-0.054,0.488,0.02,0.658,0.196
	c3.481,3.606,7.305,3.995,8.788,3.995c0.318,0,0.509-0.018,0.56-0.022c0.434-0.073,1.679-0.382,2.37-0.952
	c0.298-0.246,0.74-0.204,0.985,0.095c0.246,0.298,0.204,0.739-0.095,0.985c-0.907,0.748-2.248,1.09-2.793,1.206
	c-0.304,0.352-1.107,1.425-1.452,3.049c1.114-1.355,2.625-2.937,3.804-3.218c0.852-0.203,2.82-1.805,3.475-3.813
	c0.455-1.394,0.182-2.691-0.812-3.855c-2.2-2.579-3.799-2.931-5.345-3.271c-0.697-0.153-1.417-0.312-2.136-0.671
	c-0.44-0.22-1-0.632-1.708-1.154c-1.985-1.463-4.985-3.674-7.499-3.107c-1.209,0.274-2.2,1.162-3.029,2.714
	c-0.134,0.252-0.408,0.403-0.692,0.366c-1.44-0.152-4.005-0.077-4.756,0.778c-2.238,2.551-3.342,5.33-3.318,8.267
	c0.052-0.001,0.109-0.014,0.16-0.014C216.4,242.226,217.548,244.921,217.808,246.793z M227.137,300.662
	c1.512-0.461,3.572-2.895,4.507-7.147c0.395-1.795-0.14-2.984-0.66-3.12c-0.604-0.175-1.894,0.902-2.98,4.475l-1.839,5.487
	C226.596,300.587,226.93,300.703,227.137,300.662z M122.362,266.365c-0.301,0.032-0.61-0.193-0.7-0.503
	c-0.031-0.105-3.131-10.576-7.298-12.574c-4.185-2.007-6.806-1.593-10.767,0.017c-0.286,0.117-0.617,0.031-0.811-0.212
	c-0.039-0.048-1.047-1.254-2.446-0.699c-1.204,0.475-5.33,3.528-6.514,9.872c1.79-1.171,3.095-2.283,3.436-2.769
	c0.13-0.186,0.343-0.498,0.57-0.498c0.001,0,0.003,0,0.003,0c0.226,0,0.438,0.309,0.569,0.492c0.043,0.06,4.413,6.225,7.51,7.402
	c0.212,0.081,0.373,0.31,0.429,0.53c0.028,0.109,2.868,10.985,9.096,16.04c0.956,0.776,2.045,1.133,3.138,1.007
	c1.195-0.137,2.362-0.828,3.202-1.907c0.237-0.307,0.678-0.358,0.982-0.12c0.305,0.237,0.36,0.679,0.123,0.983
	c-0.736,0.946-1.683,1.656-2.711,2.07c0.226,0.926,0.718,3.222,0.873,6.197c1.28-1.043,3.296-3.338,2.922-7.296
	c-0.032-0.337,0.185-0.649,0.511-0.74c0.027-0.008,2.688-0.771,3.973-3.186c0.904-1.698,0.939-3.83,0.104-6.336
	C125.995,266.448,122.454,266.367,122.362,266.365z M401.109,280c-0.387,0-0.7-0.363-0.7-0.748c0-0.184,0.074-0.396,0.189-0.521
	c-0.545-0.53-1.269-0.731-1.482-0.731c-0.004,0-0.008,0-0.011,0c-0.219,0-0.425-0.076-0.593-0.221
	c-0.168-0.143-0.24-0.394-0.226-0.614c0.005-0.071,0.436-7.147-3.701-7.458c-2.574-0.19-4.525,0.311-5.808,1.515
	c-1.209,1.136-1.807,2.9-1.776,5.252c0.003,0.269-0.149,0.513-0.389,0.633c-0.241,0.119-0.529,0.09-0.741-0.074
	c-0.192-0.148-4.74-3.597-9.283-0.161c-4.238,3.206-3.996,7.463-3.914,8.228c0.782,0.024,1.501,0.233,2.151,0.622
	c2.042,1.224,2.683,3.862,2.831,4.637c0.691,0.771,1.459,1.136,2.349,1.09c2.657-0.115,5.776-3.774,6.754-5.176
	c0.214-0.307,0.633-0.385,0.947-0.186c0.238,0.146,5.856,3.589,11.084-1.631c0.005-0.006,0.011,0.012,0.017,0.006
	c1.783-1.787,2.604-3.461,2.409-4.461H401.109z M476.262,234.144c0.12-0.085,0.263-0.129,0.405-0.129c0.095,0,0.19,0.019,0.28,0.059
	c0.225,0.098,0.382,0.307,0.414,0.55c0.2,1.534,1.067,5.513,2.781,7.161c0.702-1.063,2.079-2.804,3.506-2.546
	c0.026,0.004,0.052,0.01,0.077,0.016c-0.233-5.838-1.812-8.303-3.154-9.342c-1.509-1.169-3.009-0.799-3.022-0.794
	c-0.252,0.066-0.52-0.015-0.693-0.207c-2.534-2.786-5.289-4.188-8.26-4.146c-5.42,0.065-9.69,4.919-9.732,4.968
	c-0.14,0.161-0.343,0.243-0.555,0.241c-2.942-0.115-4.805,1.167-4.984,3.405c-0.21,2.617,2.061,5.753,6.097,6.257
	C467.06,240.593,476.172,234.208,476.262,234.144z M308.161,213.038c0.983-1.614,1.505-3.47,1.505-5.372
	c0-5.698-4.635-10.333-10.332-10.333c-5.698,0-10.334,4.635-10.334,10.333c0,1.951,0.548,3.835,1.577,5.475
	C293.39,212.392,300.262,211.056,308.161,213.038z M280.337,222.828c0.922-1.459,1.413-3.134,1.413-4.85
	c0-5.169-4.391-9.375-9.788-9.375c-5.398,0-9.789,4.206-9.789,9.375c0,1.763,0.527,3.459,1.492,4.942
	C266.349,222.236,272.857,221.03,280.337,222.828z M334.338,222.829c0.923-1.46,1.412-3.134,1.412-4.851
	c0-5.169-4.391-9.375-9.788-9.375c-5.397,0-9.789,4.206-9.789,9.375c0,1.763,0.526,3.459,1.492,4.942
	C320.35,222.236,326.86,221.031,334.338,222.829z"></path>
<path id="color_x5F_3" fill="#79383a" d="M165.076,334l0.05,6h-4.963l-0.49-60.946c0.009-0.044,0.027-0.084,0.027-0.131
	c0-0.051-0.018-0.096-0.029-0.144L159.504,258h17.275l2.771,6.744l-14.528-0.659c-0.135-0.016-0.27,0.044-0.37,0.139
	c-0.099,0.096-0.154,0.228-0.153,0.364l0.07,8.412H162c-0.829,0-1.5,0.672-1.5,1.5s0.671,1.5,1.5,1.5h2.595l0.02,2.45
	c-0.119,0.125-0.195,0.292-0.195,0.479c0,0.192,0.078,0.366,0.203,0.493l0.038,4.578H162c-0.829,0-1.5,0.672-1.5,1.5
	s0.671,1.5,1.5,1.5h2.686l0.075,9H162c-0.829,0-1.5,0.672-1.5,1.5s0.671,1.5,1.5,1.5h2.785l0.066,8H162c-0.829,0-1.5,0.672-1.5,1.5
	s0.671,1.5,1.5,1.5h2.876l0.083,10H162c-0.829,0-1.5,0.672-1.5,1.5s0.671,1.5,1.5,1.5h2.984l0.066,8H162c-0.829,0-1.5,0.672-1.5,1.5
	s0.671,1.5,1.5,1.5H165.076z M193.035,298.996l0.218,8.004H195c0.829,0,1.5,0.672,1.5,1.5s-0.671,1.5-1.5,1.5h-1.666l0.273,10H195
	c0.829,0,1.5,0.672,1.5,1.5s-0.671,1.5-1.5,1.5h-1.311l0.218,8H195c0.829,0,1.5,0.672,1.5,1.5s-0.671,1.5-1.5,1.5h-1.011l0.164,6
	H198v-30c0-0.079,0.022-0.151,0.055-0.218l-4.478-10.898C193.41,298.954,193.227,298.992,193.035,298.996z M88.366,320.384
	c-1.889,0.708-4.958,3.222-5.355,4.188c1.653,0.232,9.157-1.991,10.144-3.049c0.143-0.177,0.249-0.642,0.323-1.308
	c-1.166,0.293-2.193,0.398-3.021,0.398C89.444,320.613,88.725,320.473,88.366,320.384z M102.143,304.202
	c-4.327-3.506-6.302-2.892-6.32-2.886c-0.004,0.001-0.009,0-0.013,0.002c-0.016,0.005-0.026,0.017-0.043,0.021
	c-1.224,0.353-3.926,1.338-5.909,2.682c0.574,1.301,2.426,4.84,5.839,5.536c0.145,0.029,0.262,0.111,0.357,0.211
	c1.87,0.099,4.5,0.222,6.54,0.255c2.398,0.041,4.864-0.037,7.121-0.471c-1.783-0.642-3.452-1.984-5.969-4.05
	C103.25,305.096,102.718,304.669,102.143,304.202z M226.551,276.539c-1.529,0.743-5.105,2.223-9.396,2.223
	c-1.223,0-2.502-0.12-3.808-0.411c-4.437-0.991-6.885-2.324-8.14-3.235c-0.16,4.558,2.014,8.92,6.493,12.983
	c0.747,0.678,1.542,1.406,2.365,2.16c3.009,2.758,7.938,7.275,10.88,9.332l1.725-5.146c0.065-0.213,0.132-0.402,0.198-0.6
	l-7.041-7.359c-0.111-0.117-0.179-0.269-0.192-0.43c-0.008-0.105-0.055-1.044,0.835-1.865c1.228-1.131,3.572-1.428,6.974-0.881
	c0.135,0.023,0.261,0.083,0.362,0.176l6.178,5.678c0.215,0.049,0.407,0.186,0.496,0.405c0.011,0.027,0.023,0.055,0.034,0.082
	l3.674,3.377c-0.159-2.152,0.366-4.007,0.657-4.839L226.551,276.539z M480.354,274.275l-21.917,0.706l-2.406,25.42
	c-0.03,0.312-0.266,0.567-0.574,0.623c-0.026,0.005-2.306,0.434-3.155,1.967l11.103,0.293c0.516-3.19,2.908-17.522,4.855-21.272
	c0.119-0.23,0.356-0.376,0.615-0.378c0.246-0.022,0.499,0.14,0.622,0.368c0.056,0.102,5.507,10.281,8.059,21.283l11.543-0.296
	c-0.217-0.61-0.637-1.433-1.406-1.904c-0.8-0.489-1.853-0.519-3.136-0.088c-0.198,0.067-0.417,0.04-0.598-0.071
	c-0.178-0.113-0.296-0.301-0.32-0.51l-3.09-26.192C480.486,274.247,480.424,274.273,480.354,274.275z M304.705,261.606
	c14.099-2.519,24.632-15.026,24.632-29.439c0-0.059,0.02-0.112,0.034-0.167h-5.697c0.015,0.055,0.034,0.108,0.034,0.167
	c0,11.364-7.95,21.222-18.978,23.682L304.705,261.606z M351.728,325.085c-0.216,0.289-0.615,0.366-0.924,0.18l-8.917-5.389
	l-8.915,8.525l3.738,0.234c0.227,0.014,0.434,0.138,0.553,0.332c0.069,0.112,7.024,11.279,13.335,10.67
	c6.061-0.593,12.866-7.899,13.771-8.9l-7.258-4.82c-0.321-0.214-0.409-0.648-0.195-0.971c0.214-0.32,0.648-0.408,0.971-0.195
	l33.192,22.046c2.806-1.33,5.338-7.651,6.499-11.273l-5.319,2.127c-0.229,0.091-0.488,0.057-0.685-0.094l-31.32-23.904
	L351.728,325.085z M275.142,232.167c0-0.059,0.02-0.112,0.034-0.167h-5.697c0.014,0.055,0.034,0.108,0.034,0.167
	c0,14.743,10.852,27.334,25.342,29.558L294.829,256C283.4,253.812,275.142,243.862,275.142,232.167z M302.774,383.984L303.473,223
	h-7.386l0.698,160.96c0.001,0.153-0.049,0.315-0.142,0.438l-7.958,10.518l22.318,0.174l-8.086-10.68
	C302.824,384.287,302.774,384.137,302.774,383.984z"></path>
<path id="color_x5F_2" fill="#FBC02D" d="M228.083,260.344c-1.548,7.769-1.774,12.799-1.79,14.755
	c-1.39,0.709-6.82,3.188-12.64,1.884c-5.551-1.24-7.722-2.997-8.297-3.554c0.372-3.109,0.606-10.043,0.732-14.896
	c0-0.007,0.004-0.012,0.004-0.019c0-0.006-0.003-0.009-0.003-0.014c0.073-2.815,0.108-4.924,0.112-5.155
	c0.001-0.046-0.003-0.091-0.011-0.136c-0.013-0.073-0.456-2.536-1.048-5.873l4.55-0.273c0.468,1.585,1.617,3.112,2.983,3.529
	c-0.1,0.97-0.019,2.735,1.206,5.066c2.357,4.491,7.388,5.162,10.177,5.162c0,0,0,0,0.001,0
	C225.443,260.82,226.871,260.647,228.083,260.344z M204.67,259.088l-9.571-0.079c1.778,3.589,5.169,10.894,8.942,19.132
	c-0.277-1.508-0.323-3.034-0.115-4.567C204.295,270.854,204.537,264.059,204.67,259.088z M252.534,327.392
	c-0.794-0.316-1.433-0.568-1.848-0.763c-3.012-1.419-14.658-29.576-17.349-36.162l-6.321-5.809c-3.717-0.569-5.1,0.103-5.595,0.56
	c-0.212,0.196-0.309,0.396-0.353,0.536l6.354,6.641c1.585-3.599,3.349-3.505,3.917-3.354c1.468,0.384,2.188,2.438,1.673,4.775
	c-0.919,4.18-3.119,7.47-5.474,8.188c-0.124,0.037-0.258,0.057-0.404,0.057c-1.934,0-5.902-3.337-14.014-10.771
	c-0.821-0.752-1.615-1.479-2.36-2.155c-1.302-1.181-2.425-2.402-3.368-3.655c6.124,13.45,12.3,27.192,13.705,30.32
	c2.406-0.755,11.017-2.755,16.83,5.013c5.821,7.779,4.545,16.803,4.056,19.243l25.655-0.067
	C267.715,333.458,257.105,329.22,252.534,327.392z M88.044,353.119c-0.127,0.032-0.254,0.048-0.378,0.048
	c-0.667,0-1.275-0.447-1.451-1.123c-0.062-0.237-0.057-0.475-0.007-0.698c-2.725,0.451-5.833,1.577-6.928,4.256l34.55,0.354
	c-0.838-1.406-2.659-3.971-5.364-4.432c-1.394-0.237-6.85-0.422-12.381-0.492L88.044,353.119z M118.738,285.874
	c-0.204,0.023-0.407,0.036-0.609,0.036c-1.265,0-2.489-0.454-3.57-1.332c-1.92-1.559-3.521-3.592-4.831-5.702
	c-1.768,1.061-3.558,1.695-5.296,1.863l-0.668,1.269c4.252-2.128,5.984-1.337,6.222-1.215c0.054,0.027,0.105,0.062,0.15,0.104
	c1.524,1.374,2.229,2.854,2.095,4.397c-0.215,2.482-2.459,4.938-7.274,7.964c-1.982,1.245-4.804,1.985-7.688,2.423
	c-0.282,0.769-0.91,2.634-1.001,4.191c1.164,0.005,3.376,0.512,6.756,3.25c0.578,0.469,1.112,0.907,1.61,1.315
	c3.552,2.915,5.202,4.266,7.767,4.195c0.098,0.002,0.191,0.023,0.278,0.058c2.061-0.847,3.762-2.192,4.777-4.325
	c3.619-7.602,1.838-16.501,1.364-18.506C118.793,285.863,118.766,285.871,118.738,285.874z M383.947,307.69
	c-0.661,0.383-1.43,0.574-2.297,0.574c-0.669,0-1.396-0.114-2.179-0.342c-1.625-0.473-2.703-1.305-3.204-2.475
	c-0.556-1.295-0.223-2.62,0.026-3.302c-2.406-2.373-3.318-5.205-3.624-6.536c-0.445,0.065-0.866,0.053-1.274,0.008
	c-0.765,0.317-4.784,2.044-7.945,4.505c3.106,1.643,12.976,7.199,13.727,11.908c0.181,1.139-0.174,2.188-1.026,3.038
	c-1.153,1.148-2.732,1.725-4.565,1.725c-1.728,0-3.682-0.512-5.72-1.538c-1.573-0.792-3.141-1.894-4.45-3.158l-0.322,0.432
	l15.821,12.075c8.953-6.639,9.699-16.09,9.73-18.616c-0.382-0.004-0.743-0.026-1.104-0.05
	C385.304,306.441,384.831,307.178,383.947,307.69z M465.377,254.997c-1.602-0.41-3.03-1.093-4.211-2.053
	c-0.209-0.17-0.404-0.348-0.592-0.53l-2,21.124L480.313,273c0.007,0,0.014,0,0.021,0c0.025,0,0.047,0.006,0.072,0.007l-2.465-20.89
	c-1.081,1.255-2.724,2.395-5.219,2.946c-0.104,0.63-0.496,2.404-1.714,3.351c-0.524,0.408-1.126,0.614-1.791,0.614
	c-0.156,0-0.315-0.011-0.478-0.034C466.201,258.643,465.448,256.33,465.377,254.997z M332,230.48c0-0.556-0.415-1.48-1.094-1.48
	h-8.622c-0.728,0-1.284,0.951-1.284,1.427c0,0.522,0.898,0.573,1.284,0.573h8.622C332,231,332,230.661,332,230.48z M295.461,219
	h9.078c0.496,0,0.954,0.171,1.34,0.436c2.753-1.927,3.019-4.323,3.016-5.179c-8.93-2.54-16.906-0.505-18.875,0.085
	c0.867,2.278,3.459,4.367,4.285,4.99C294.65,219.131,295.04,219,295.461,219z M268.284,228h8.622c0.554,0,1,0.249,1.341,0.603
	c2.476-1.707,2.765-3.79,2.77-4.58c-8.41-2.289-15.927-0.478-17.861,0.073c0.832,2.05,3.171,3.855,3.887,4.372
	C267.395,228.187,267.815,228,268.284,228z M278,230.48c0-0.556-0.415-1.48-1.094-1.48h-8.622c-0.729,0-1.284,0.951-1.284,1.427
	c0,0.522,0.898,0.573,1.284,0.573h8.622C278,231,278,230.661,278,230.48z M330.906,228c0.555,0,1,0.249,1.341,0.603
	c2.477-1.707,2.765-3.79,2.77-4.58c-8.413-2.289-15.933-0.476-17.862,0.074c0.815,2.058,3.047,3.935,3.751,4.491
	c0.376-0.347,0.845-0.587,1.378-0.587H330.906z M306,221.381c0-0.581-0.654-1.381-1.461-1.381h-9.078
	c-0.807,0-1.461,0.8-1.461,1.323c0,0.633,1.118,0.677,1.461,0.677h8.713c0.001,0,0.002,0,0.003,0h0.362
	C304.882,222,306,221.955,306,221.381z"></path>
<path id="color_x5F_1" fill="#0984E3" d="M226.103,254.356c0.077,0.379-0.168,0.748-0.547,0.825
	c-0.48,0.098-0.924,0.146-1.33,0.146c-0.941,0-1.678-0.261-2.201-0.783c-1.03-1.027-0.726-2.615-0.712-2.683
	c0.076-0.379,0.448-0.623,0.824-0.549c0.377,0.076,0.623,0.442,0.549,0.82c-0.002,0.013-0.159,0.941,0.332,1.424
	c0.494,0.486,1.501,0.404,2.259,0.252C225.657,253.738,226.026,253.977,226.103,254.356z M582.739,279.413
	c-0.001,0.386-0.313,0.699-0.7,0.699h-0.001l-21.657-0.024l7.319,15.009c0.206,0.424,0.188,0.895,0.003,1.291
	c0.652,0.38,1.222,0.885,1.67,1.359c0.331-1.172,1.044-2.253,2.021-2.991c1.116-0.841,2.427-1.084,3.592-0.665
	c2.742,0.984,3.718,6.183,3.819,6.773c0.066,0.381-0.188,0.742-0.569,0.809c-0.386,0.06-0.743-0.19-0.81-0.569
	c-0.225-1.286-1.241-5.094-2.913-5.693c-0.982-0.353-1.846,0.141-2.276,0.465c-1.083,0.817-1.752,2.256-1.664,3.579
	c0.021,0.319-0.177,0.612-0.48,0.712c-0.307,0.099-0.638-0.021-0.809-0.29c-0.414-0.651-1.805-2.397-3.253-2.658
	c-0.593-0.107-1.139,0.04-1.676,0.446c-0.551,0.417-0.514,0.714-0.501,0.811c0.124,0.996,2.366,2.368,3.918,3.024
	c0.355,0.15,0.522,0.561,0.372,0.917c-0.112,0.267-0.372,0.428-0.644,0.428c-0.091,0-0.184-0.018-0.273-0.056
	c-0.748-0.315-4.494-1.998-4.763-4.139c-0.068-0.546,0.058-1.354,1.045-2.102c0.4-0.304,0.819-0.509,1.252-0.632l-7.721-15.832
	l-21.424-0.024c-0.187,12.078-0.422,21.758-0.445,22.699c-0.021,0.815-0.688,1.241-1.499,1.241c-0.013,0-0.025,0-0.038,0
	c-0.828,0-1.482-0.487-1.463-1.315c0.006-0.234,0.246-10.142,0.439-22.628L482.641,280l2.293,19.44
	c1.353-0.298,2.526-0.145,3.501,0.457c1.884,1.163,2.244,3.568,2.259,3.671c0.027,0.197-0.03,0.397-0.159,0.55
	c-0.129,0.152-0.316,0.242-0.517,0.248l-13,0.334c-0.365-0.003-0.629-0.222-0.701-0.549c-1.935-8.709-5.806-17.006-7.371-20.154
	c-1.95,5.533-4.228,20.103-4.254,20.261C464.638,304.599,464.344,305,464,305c-0.006,0-0.012,0-0.019,0l-12.666-0.484
	c-0.203-0.006-0.394-0.173-0.522-0.33c-0.129-0.156-0.183-0.399-0.149-0.6c0.423-2.496,2.927-3.485,4.041-3.798l1.879-19.852
	l-10.645-0.007l7.662,15.824c0.361,0.745,0.05,1.643-0.696,2.003c-0.21,0.103-0.433,0.15-0.652,0.15
	c-0.557,0-1.092-0.311-1.35-0.847l-8.296-17.133l-30.097-0.017l-0.192,19.772c-0.005,0.507-0.27,0.958-0.659,1.228
	c0.294,0.217,0.535,0.435,0.724,0.636c0.705-0.756,1.951-1.832,3.371-1.88c0.628-0.022,1.597,0.171,2.473,1.219
	c0.248,0.297,0.208,0.738-0.088,0.986c-0.295,0.248-0.737,0.209-0.986-0.088c-0.417-0.499-0.865-0.714-1.351-0.718
	c-1.19,0.04-2.482,1.467-2.88,2.014c-0.145,0.197-0.377,0.311-0.624,0.285c-0.244-0.02-0.459-0.166-0.568-0.385
	c-0.036-0.066-0.986-1.804-4.072-1.946c-3.08-0.136-4.41,3.191-4.424,3.226c-0.109,0.274-0.372,0.441-0.65,0.441
	c-0.086,0-0.174-0.016-0.259-0.05c-0.359-0.143-0.534-0.55-0.392-0.909c0.069-0.175,1.706-4.297,5.789-4.106
	c0.6,0.028,1.134,0.11,1.615,0.227c-0.009-0.067-0.02-0.134-0.019-0.203l0.192-19.75l-6.853-0.004
	c0.099,1.256-0.43,2.943-2.447,5.096c2.052,3.382,1.981,8.827-0.232,13.234c-1.379,2.745-4.745,7.3-11.904,7.721
	c-0.004,2.706-0.705,12.447-9.982,19.53l13.854,10.574c-0.127-0.789-0.208-1.59-0.208-2.394c0-8.222,6.689-14.91,14.91-14.91
	c8.222,0,14.91,6.688,14.91,14.91c0,8.222-6.689,14.91-14.91,14.91c-4.204,0-8.166-1.775-10.99-4.863
	c-1.229,2.138-2.719,3.96-4.41,4.534c-0.073,0.024-0.148,0.037-0.225,0.037c-0.136,0-0.272-0.04-0.388-0.117l-25.069-16.65
	c-0.007,0.009-0.008,0.02-0.016,0.028c-0.313,0.358-7.764,8.8-14.792,9.485c-0.212,0.022-0.425,0.031-0.636,0.031
	c-6.403,0.001-12.638-9.19-13.833-11.052l-4.977-0.312c-0.277-0.017-0.519-0.197-0.613-0.458c-0.096-0.261-0.027-0.554,0.174-0.746
	l10.457-10c0.229-0.22,0.575-0.257,0.846-0.093l8.832,5.337l9.453-12.676c-1.581-1.833-2.56-3.898-2.276-5.83
	c0.712-4.859,7.986-8.755,11.273-10.281c-1.123-0.682-1.961-1.777-2.363-3.006c-0.738-2.256-0.062-5.223,3.164-6.405
	c0.357-0.131,0.706-0.233,1.045-0.306c-0.075-0.696-0.182-2.933,1.032-5.403l-15.747-0.01c-0.006,0-0.012,0.005-0.019,0.005
	c-0.006,0-0.012-0.005-0.019-0.005l-51.902-0.031l-0.451,103.963l8.467,11.184c0.039,0.052,0.058,0.109,0.08,0.167l201.88,1.568
	c0.387,0.003,0.697,0.283,0.694,0.67c-0.003,0.385-0.316,0.658-0.7,0.658c-0.002,0-0.004,0-0.006,0l-307.694-2.482
	c-0.153,0.055-0.315,0.055-0.472-0.004l-23.8-0.191c-0.091,0.042-0.188,0.071-0.29,0.071c-0.077,0-0.155-0.013-0.231-0.04
	c-0.033-0.012-0.061-0.024-0.094-0.036l-140.001-1.13c-0.387-0.004-0.698-0.213-0.694-0.6c0.003-0.385,0.315-0.588,0.7-0.588
	c0.002,0,0.004,0,0.006,0l137.18,1.065c-4.983-2.742-5.478-6.527-5.247-8.739c0.586-5.605,6.596-11.057,13.125-11.902
	c8.814-1.149,15.205,8.476,17.584,12.752c0.322-1.417,0.88-2.701,1.778-3.397c1.881-1.457,5.408-1.763,7.2-1.82
	c-0.286-1.024-0.288-2.374,0.023-3.756c0.42-1.86,1.76-5.311,6.016-7.509c4.917-2.539,8.782,0.24,10.466,1.865
	c0.621-1.829,2.182-4.968,5.487-7.213c4.295-2.915,9.998-3.303,16.951-1.151c13.598,4.208,16.071,13.674,16.441,18.274
	c0.352-0.363,0.784-0.7,1.31-0.951c1.325-0.63,2.893-0.559,4.661,0.213c5.083,2.223,2.692,12.073,2.141,14.096l9.806,0.076
	l8.441-11.149l-0.451-103.975l-57.501-0.067l2.479,4.746c0.303-0.56,0.697-1.057,1.221-1.362c0.52-0.303,1.386-0.545,2.562,0.015
	c0.852,0.405,1.424,1.08,1.701,2.005c0.868,2.904-1.527,7.413-2.395,8.908l11.41,22.242c1.873-0.123,8.791-0.3,15.559,2.936
	c8.008,3.829,6.786,20.799,6.729,21.518c-0.028,0.364-0.331,0.878-0.696,0.88l-64.334,0.4c-0.001,0-0.002,0-0.002,0
	c-0.284,0-0.539-0.404-0.647-0.666L199,312.082V340.5c0,0.276-0.224,0.5-0.5,0.5h-4.834c-0.271,0-0.492-0.216-0.5-0.486L192.989,334
	h-26.913l0.054,6.496c0.001,0.133-0.051,0.262-0.145,0.356c-0.094,0.094-0.222,0.147-0.355,0.147h-5.963
	c-0.274,0-0.498-0.222-0.5-0.496l-0.489-60.882l-28.386-0.034c-0.145,0.545-0.347,1.066-0.611,1.56
	c-1.199,2.238-3.285,3.283-4.279,3.672c0.239,5.136-3.138,7.797-4.308,8.561c0.012,3.254-0.438,7.074-1.991,10.733
	c1.919,1.553,9.068,8.3,11.206,24.073c3.428,1.586,8.791,5.764,6.694,11.392c-0.559,1.5-1.523,2.435-2.867,2.777
	c-0.374,0.096-0.766,0.14-1.171,0.14c-3.749,0-8.589-3.747-9.926-4.844c-1.697,0.648-3.999,1.134-6.392,1.134
	c-2.165,0-4.399-0.4-6.316-1.443c-2.324-1.265-3.692-3.484-4.507-5.664c0,0.018,0.008,0.033,0.007,0.051
	c-0.029,0.718-0.563,1.313-1.273,1.422l-7.507,1.142l6.947,1.579c0.71,0.161,1.201,0.81,1.166,1.536
	c-0.036,0.728-0.588,1.323-1.31,1.415l-6.829,0.862l6.941,1.422c0.713,0.146,1.219,0.783,1.199,1.511
	c-0.02,0.727-0.56,1.336-1.279,1.442l-6.449,0.957l6.161,1.106c0.693,0.125,1.207,0.715,1.234,1.419
	c0.027,0.704-0.44,1.332-1.122,1.51l-3.178,0.825c3.572,0.059,6.995,0.169,8.168,0.369c4.568,0.78,6.846,5.921,6.941,6.14
	c0.094,0.217,0.072,0.286-0.059,0.483c-0.13,0.196-0.349,0.131-0.583,0.131c-0.002,0-0.005,0-0.007,0l-36.666-0.191
	c-0.211-0.002-0.41-0.008-0.541-0.174c-0.131-0.165-0.181-0.335-0.135-0.541c1.216-5.438,7.985-6.272,11.414-6.34l7.271-1.888
	l-8.434-1.515c-0.723-0.13-1.246-0.765-1.235-1.499c0.011-0.735,0.553-1.354,1.28-1.461l7.089-1.052l-7.501-1.536
	c-0.719-0.147-1.226-0.794-1.198-1.527c0.028-0.733,0.583-1.339,1.311-1.431l7.394-0.934l-6.374-1.449
	c-0.703-0.16-1.192-0.797-1.167-1.518c0.026-0.72,0.561-1.32,1.273-1.429l7.717-1.174l-7.918-1.884
	c-0.792-0.189-1.283-0.973-1.118-1.765l-5.672-0.319l-19.324,7.858c-0.048,0.02-0.098,0.034-0.149,0.042
	c-0.337,0.056-0.733,0.091-1.16,0.091c-2.065,0-4.883-0.811-5.555-3.971c-0.796-3.74,2.094-6.064,3.734-6.768l15.237-6.503
	l-0.832-7.181c-0.787,0.209-1.604,0.372-2.454,0.483c-0.863,0.112-1.709,0.168-2.531,0.168c-1.956,0-3.768-0.329-5.376-0.929
	c-0.033-0.01-0.063-0.021-0.094-0.034c-1.936-0.738-3.566-1.88-4.72-3.405c-2.019-2.668-2.311-6.046-0.823-9.512
	c3.054-7.114,11.517-9.014,13.568-9.375c1.233-3.504,3.708-5.215,7.753-5.373c4.564-0.221,7.721,4.277,7.853,4.468
	c0.016,0.023,0.02,0.051,0.032,0.075c0.279,0.012,0.541,0.024,0.761,0.035l0.169,0.004c2.09,0,8.655-1.526,13.682-4.326
	c0.007-0.017,0.006-0.033,0.014-0.049l1.271-2.417c-1.291-0.084-2.541-0.416-3.713-1.024c-0.107-0.056-0.209-0.12-0.314-0.18
	l-21.562-0.025c-0.071,0.028-0.124,0.049-0.138,0.054c-0.078,0.027-0.158,0.041-0.236,0.041c-0.121,0-0.235-0.038-0.338-0.096
	l-57.538-0.066c-0.386-0.001-0.7-0.314-0.699-0.701c0-0.386,0.314-0.699,0.7-0.699c0,0,0.001,0,0.001,0l28.345,0.033
	c-3.118-2.519-8.763-8.72-4.485-18.279c2.738-6.118,8.683-9.807,15.452-9.603c6.253,0.179,11.438,3.707,13.531,9.207
	c1.166,3.064,1.317,5.853,0.897,8.31c1.173-0.453,2.965-0.904,4.762-0.412c1.604,0.443,2.881,1.545,3.794,3.274
	c0.904,1.714,1.068,3.341,0.488,4.836c-0.449,1.157-1.281,2.048-2.121,2.705l17.214,0.02c-2.745-2.497-4.506-6.523-4.744-11.12
	c-0.489-9.461,5.078-14.907,7.693-15.939c1.578-0.62,2.94,0.077,3.683,0.741c3.948-1.549,7.017-1.938,11.459,0.193
	c4.24,2.033,7.232,10.868,7.9,12.997c1.321,0.251,4.658,1.595,7.017,8.672c0.542,1.625,0.745,3.124,0.635,4.494l28.145,0.033
	l-0.166-20.718c-0.001-0.133,0.051-0.261,0.145-0.356c0.094-0.095,0.222-0.148,0.355-0.148h0.097
	c-0.176-0.223-0.31-0.482-0.336-0.786c-0.033-0.391-0.768-9.62,3.29-13.958c1.445-1.544,3.289-2.333,5.477-2.268
	c6.558,0.119,11.91,10.073,12.499,11.207c0.1,0.193,0.151,0.397,0.164,0.6c4.464-0.57,7.393-0.029,9.414,0.948
	c0.243-1.283,1.312-6.297,3.61-8.877c2.917-3.274,8.398-2.549,9.476-2.371c-0.97-5.552-1.931-11.211-2.053-12.513
	c-0.14-1.492-0.134-4.253,1.475-5.979c0.923-0.989,2.222-1.469,3.821-1.433c1.665,0.039,2.91,0.53,3.702,1.458
	c0.425,0.498,0.646,1.045,0.759,1.523c0.464-0.226,1.014-0.397,1.514-0.299c0.413,0.079,0.743,0.319,0.953,0.693
	c0.68,1.21-0.85,3.704-1.698,4.926l0.932,9.479c0.509-2.215,1.624-4.325,3.356-6.299c1.236-1.409,4.282-1.363,5.493-1.286
	c0.986-1.665,2.238-2.678,3.727-3.015c3.139-0.71,6.447,1.73,8.638,3.344c0.153,0.113,0.3,0.222,0.441,0.324l0.403-2.984
	c-1.98-4.292-1.137-4.946-0.857-5.164c0.471-0.365,1.043-0.2,1.527,0.073c0.548-1.275,1.732-2.696,3.79-2.369
	c0.975,0.153,1.745,0.638,2.289,1.442c1.326,1.96,1.285,5.813-0.122,12.091c0.615,0.48,1.264,1.093,1.953,1.9
	c1.312,1.539,1.685,3.336,1.078,5.198c-0.806,2.468-3.153,4.425-4.482,4.741c-1.016,0.242-3.15,2.747-4.376,4.489
	c-0.394,3.146-2.322,6.646-5.339,7.991c-0.264,1.28-0.491,2.487-0.688,3.626c0.008,0.013,0.021,0.021,0.027,0.034l7.745,14.823
	l58.227,0.067l-0.066-15.236c-15.279-2.235-26.749-15.469-26.749-30.976c0-0.062,0.02-0.119,0.036-0.176
	c-1.923-0.05-2.147-1.065-2.147-1.511c0-0.392,0.14-0.843,0.385-1.254c-0.936-0.68-3.646-2.825-4.351-5.323
	c-0.072-0.256,0.068-0.523,0.32-0.609c0.031-0.01,0.142-0.046,0.288-0.091c-0.961-1.582-1.469-3.373-1.469-5.225
	c0-5.721,4.84-10.375,10.789-10.375c5.949,0,10.788,4.654,10.788,10.375c0,1.798-0.5,3.549-1.414,5.103
	c0.101,0.027,0.199,0.047,0.3,0.076c0.19,0.055,0.331,0.217,0.358,0.413c0.019,0.141,0.411,3.411-3.207,5.881
	c0.135,0.331,0.212,0.673,0.212,0.976c0,0.747-0.363,1.573-2.094,1.573h-0.398c0.014,0.055,0.034,0.108,0.034,0.167
	c0,10.928,7.653,20.233,18.281,22.4l-0.137-31.633c-1.064-0.176-1.686-0.725-1.686-1.553c0-0.468,0.204-0.96,0.532-1.378
	c-1.12-0.863-3.915-3.229-4.626-5.854c-0.068-0.252,0.069-0.515,0.315-0.602c0.036-0.013,0.173-0.059,0.358-0.117
	c-1.031-1.742-1.578-3.719-1.578-5.762c0-6.249,5.084-11.333,11.334-11.333c6.248,0,11.332,5.084,11.332,11.333
	c0,1.986-0.534,3.921-1.517,5.632c0.124,0.035,0.244,0.06,0.368,0.097c0.189,0.056,0.327,0.219,0.354,0.415
	c0.02,0.151,0.42,3.652-3.277,6.337c0.256,0.372,0.406,0.788,0.406,1.175c0,0.99-0.792,1.576-2.127,1.66l-0.137,31.425
	c10.228-2.434,17.571-11.639,17.571-22.241c0-0.059,0.02-0.112,0.034-0.167h-0.058c-2.061,0-2.284-1.063-2.284-1.52
	c0-0.342,0.113-0.728,0.303-1.094c-0.822-0.643-3.548-2.927-4.269-5.483c-0.072-0.256,0.068-0.523,0.32-0.609
	c0.031-0.01,0.142-0.046,0.288-0.091c-0.963-1.582-1.47-3.373-1.47-5.225c0-5.721,4.84-10.375,10.789-10.375
	c5.948,0,10.788,4.654,10.788,10.375c0,1.798-0.499,3.549-1.415,5.103c0.102,0.027,0.2,0.047,0.301,0.076
	c0.191,0.055,0.332,0.217,0.358,0.413c0.02,0.141,0.411,3.411-3.206,5.881c0.135,0.331,0.212,0.673,0.212,0.976
	c0,0.747-0.363,1.573-2.094,1.573h-0.203c0.015,0.055,0.034,0.108,0.034,0.167c0,15.173-11.153,28.329-26.038,30.861l-0.066,15.361
	l31.102,0.019c-0.86-1.298-1.109-2.825-0.712-4.491c0.737-3.084,3.782-6.28,6.788-7.126c2.615-0.739,4.698,0.263,5.995,1.403
	c0.774-3.853,4.912-6.493,6.413-7.15c1.113-0.487,3.228-0.736,5.527,0.168c0.26,0.103,0.537,0.232,0.822,0.379
	c-1.507-6.248,2.238-12.112,7.025-14.745c4.15-2.283,10.478-2.823,14.647,3.17c3.36,4.83,4.607,9.623,3.707,14.248
	c-0.868,4.46-3.527,7.762-5.564,9.727c2.211-0.13,4.126,0.645,5.259,1.255c0.175-2.161,0.905-3.857,2.177-5.053
	c1.58-1.483,3.885-2.125,6.872-1.899c4.661,0.351,5.027,6.234,5.014,8.264c0.865,0.231,1.942,0.909,2.506,1.931
	c0.003,0.005,0.005,0.011,0.008,0.016l7.283,0.004l0.449-46.169c0.18-5.719,2.988-16.549,12.336-16.839
	c10.058-0.309,100.236,0.316,101.147,0.322c0.104,0.002,8.318,0.28,11.129,11.319l25.136,51.545l22.342,0.025
	C582.427,278.713,582.739,279.026,582.739,279.413z M72.346,269.381c-1.202,4.115-3.908,7.619-5.604,8.619h2.477l1.982-2.727
	c0.225-0.314,0.664-0.347,0.976-0.123c0.315,0.225,0.388,0.633,0.163,0.947L70.938,278h0.302c0.021,0,0.059-0.156,0.133-0.248
	l3.414-4.191c0.243-0.3,0.684-0.348,0.984-0.107c0.301,0.242,0.349,0.683,0.107,0.984l-2.959,3.684l4.044,0.005
	c0.794-0.355,2.82-1.411,3.517-3.215c0.424-1.099,0.282-2.333-0.423-3.669c-0.724-1.372-1.707-2.239-2.921-2.577
	C75.136,268.113,73.006,269.035,72.346,269.381z M49.748,278h3.258l-2.052-6.83c-0.11-0.371,0.1-0.727,0.471-0.838
	c0.368-0.107,0.76,0.076,0.871,0.445L54.468,278h0.155l0.558-4.143c0.051-0.383,0.406-0.601,0.786-0.552
	c0.383,0.052,0.653,0.403,0.602,0.787l-0.534,4.009l8.542,0.01c0.743-0.539,5.049-3.852,6.509-9.214
	c0.006-0.076,0.023-0.149,0.053-0.219c0.641-2.511,0.656-5.462-0.605-8.775c-1.887-4.96-6.586-8.154-12.262-8.316
	c-4.864-0.135-11.143,2.069-14.133,8.753C39.168,271.447,48.646,277,49.748,278z M99.771,278.49c2.786,1.444,5.977,1.15,9.243-0.815
	c-2.344-4.146-3.596-8.3-3.934-9.515c-2.784-1.277-6.067-5.344-7.309-6.975c-1.068,0.961-2.929,2.137-4.18,2.888
	c-0.079,0.907-0.111,1.86-0.058,2.885C93.804,272.218,96.195,276.636,99.771,278.49z M87.631,288.943
	c-0.796-0.041-1.861-0.087-3.036-0.087c-4.869,0-5.31,0.832-5.312,0.84c-0.021,0.46,0.084,0.595,0.106,0.617
	c0.131,0.136,0.397,0.021,0.398,0.02c0.067-0.021,0.136-0.03,0.205-0.03c0.193,0,0.382,0.08,0.517,0.225
	c0.182,0.196,0.241,0.479,0.144,0.729c-0.224,0.576-0.693,2.321-0.181,3.446c0.212,0.466,0.572,0.788,1.1,0.979
	c0.533,0.192,1.019,0.296,1.443,0.296c1.154,0,1.507-0.727,1.51-0.734c0.118-0.27,0.384-0.412,0.685-0.398
	c0.013,0,1.329,0.121,3.28,0.121c0.78,0,1.679,0.035,2.65,0.035c0,0,0.001,0,0.002,0c4.257,0,9.904-0.853,13.069-2.843
	c4.289-2.695,6.456-5.036,6.624-6.983c0.092-1.068-0.412-2.099-1.54-3.147c-0.091-0.023-0.296-0.064-0.621-0.064
	c-0.826,0-2.681,0.278-5.831,2.141c-5.38,3.182-12.607,4.847-14.973,4.847C87.786,288.949,87.706,288.947,87.631,288.943z
	 M88.909,319.069c0.692,0.139,2.387,0.328,4.67-0.334c0.083-2.105-0.004-5.055-0.206-7.77c-0.253-0.118-0.424-0.379-0.405-0.676
	c0.006-0.104,0.039-0.2,0.085-0.288c-2.34-1.39-3.714-3.773-4.327-5.082c-0.378,0.355-0.694,0.725-0.906,1.11
	C86.58,308.284,88.103,315.853,88.909,319.069z M83.011,324.571c1.653,0.232,9.157-1.991,10.144-3.049
	c0.143-0.177,0.249-0.642,0.323-1.308c-1.166,0.293-2.193,0.398-3.021,0.398c-1.014,0-1.733-0.14-2.091-0.23
	C86.478,321.092,83.408,323.605,83.011,324.571z M103.665,311.432c-0.366,0-0.73-0.003-1.093-0.009
	c-1.613-0.026-3.589-0.108-5.275-0.19c0.547,1.643,2.339,5.544,7.064,5.729c5.727,0.205,9.515-3.593,10.741-7.931
	C111.984,311.006,107.775,311.432,103.665,311.432z M109.715,309.552c-1.783-0.642-3.452-1.984-5.969-4.05
	c-0.496-0.406-1.028-0.834-1.603-1.301c-4.327-3.506-6.302-2.892-6.32-2.886c-0.004,0.001-0.009,0-0.013,0.002
	c-0.016,0.005-0.026,0.017-0.043,0.021c-1.224,0.353-3.926,1.338-5.909,2.682c0.574,1.301,2.426,4.84,5.839,5.536
	c0.145,0.029,0.262,0.111,0.357,0.211c1.87,0.099,4.5,0.222,6.54,0.255C104.993,310.064,107.458,309.986,109.715,309.552z
	 M95.712,295.892c-1.166,0.136-2.319,0.227-3.409,0.287l2.095,4.131c0.175-0.06,0.33-0.111,0.462-0.155
	C94.88,298.681,95.353,296.978,95.712,295.892z M83.336,300.113c0.121-0.367,0.519-0.566,0.885-0.443
	c0.367,0.122,0.565,0.518,0.443,0.885c-0.069,0.207-0.148,0.404-0.223,0.605c0.439,0.69,1.557,2.479,2.318,3.943
	c0.428-0.672,1.043-1.285,1.759-1.834c0.014-0.014,0.03-0.023,0.044-0.035c1.398-1.061,3.137-1.882,4.515-2.432l-2.312-4.56
	c-0.825,0.026-1.598,0.038-2.276,0.038c-1.367,0-2.413-0.037-2.955-0.062c-0.366,0.47-1.133,1.146-2.52,1.146
	c-0.587,0-1.233-0.125-1.919-0.373c-0.891-0.321-1.53-0.899-1.901-1.719c-0.543-1.199-0.355-2.649-0.132-3.581
	c-0.265-0.076-0.497-0.215-0.685-0.412c-0.359-0.376-0.525-0.93-0.493-1.646c0.068-1.507,2.138-2.179,6.711-2.179
	c0.181,0,0.355,0.003,0.532,0.005c-1.038-1.162-3.273-3.218-6.016-3.096c-3.625,0.143-5.602,1.58-6.609,4.808
	c-0.081,0.26-0.306,0.448-0.575,0.484c-0.098,0.014-9.81,1.398-12.905,8.61c-1.28,2.982-1.048,5.864,0.653,8.114
	c0.969,1.28,2.346,2.242,3.98,2.889c1.136-0.225,7.295-1.658,10.063-6.77c0.185-0.341,0.61-0.467,0.949-0.282
	c0.34,0.184,0.466,0.608,0.282,0.948c-2.161,3.99-6.039,5.93-8.638,6.825c1.483,0.236,3.091,0.268,4.787,0.046
	C77.126,309.25,81.472,305.725,83.336,300.113z M96.085,351.031l-8.041,2.088c-0.127,0.032-0.254,0.048-0.378,0.048
	c-0.667,0-1.275-0.447-1.451-1.123c-0.062-0.237-0.057-0.475-0.007-0.698c-2.725,0.451-5.833,1.577-6.928,4.256l34.55,0.354
	c-0.838-1.406-2.659-3.971-5.364-4.432C107.072,351.286,101.616,351.101,96.085,351.031z M105.505,330.739
	c-0.221-0.719-0.391-1.417-0.514-2.057l-8.809-0.497l8.499,2.022C105.019,330.288,105.302,330.482,105.505,330.739z
	 M118.472,305.422c-0.467,0.866-1.022,1.62-1.664,2.26c-0.864,6.279-5.823,10.69-11.99,10.69c-0.17,0-0.34-0.004-0.512-0.011
	c-6.079-0.238-8.072-5.756-8.492-7.204c-0.383-0.02-0.728-0.039-1.027-0.057c0.243,3.344,0.573,10.11-0.609,11.377
	c-1.18,1.265-8.311,3.488-10.967,3.488c-0.144,0-0.274-0.006-0.39-0.02c-0.535-0.062-0.904-0.264-1.095-0.6
	c-0.137-0.239-0.254-0.644-0.034-1.213c0.604-1.561,3.843-3.999,5.813-4.905c-0.527-2.133-1.988-8.595-1.4-12.265
	c-0.032-0.044-0.062-0.09-0.084-0.143c-0.406-1.037-1.51-2.891-2.244-4.08c-1.812,3.732-4.798,6.392-8.684,7.774l0.815,7.035
	l7.483-3.194c0.357-0.151,0.767,0.013,0.919,0.369c0.151,0.355-0.014,0.767-0.369,0.918l-8.048,3.435
	c-0.111,0.15-0.278,0.259-0.479,0.282c-0.027,0.003-0.055,0.005-0.082,0.005c-0.027,0-0.052-0.012-0.079-0.015l-15.373,6.562
	c-0.147,0.064-3.671,1.648-2.917,5.191c0.692,3.251,4.456,2.879,5.047,2.8l19.392-7.886c0.096-0.039,0.2-0.051,0.303-0.051
	l23.064,1.299c-0.121-0.992-0.136-1.677-0.137-1.774c-0.003-0.387,0.307-0.492,0.693-0.492c0.002,0,0.005,0,0.007,0
	c0.383,0,0.696,0.094,0.7,0.479c0,0.08,0.146,8.117,4.968,10.74c3.767,2.051,8.885,1.227,11.643,0.139
	c0.14-0.149,0.328-0.22,0.519-0.216c0.599-0.274,1.04-0.554,1.266-0.8c0.261-0.286,0.704-0.329,0.989-0.068
	c0.285,0.262,0.303,0.691,0.042,0.976c-0.228,0.248-0.572,0.5-1.003,0.746c2.284,1.788,6.707,4.683,9.334,4.004
	c0.885-0.227,1.507-0.851,1.902-1.909c2.255-6.053-6.214-9.742-6.3-9.779c-0.229-0.097-0.388-0.308-0.42-0.554
	C127.069,314.003,120.537,307.227,118.472,305.422z M118.82,285.86c-0.027,0.003-0.055,0.011-0.082,0.014
	c-0.204,0.023-0.407,0.036-0.609,0.036c-1.265,0-2.489-0.454-3.57-1.332c-1.92-1.559-3.521-3.592-4.831-5.702
	c-1.768,1.061-3.558,1.695-5.296,1.863l-0.668,1.269c4.252-2.128,5.984-1.337,6.222-1.215c0.054,0.027,0.105,0.062,0.15,0.104
	c1.524,1.374,2.229,2.854,2.095,4.397c-0.215,2.482-2.459,4.938-7.274,7.964c-1.982,1.245-4.804,1.985-7.688,2.423
	c-0.282,0.769-0.91,2.634-1.001,4.191c1.164,0.005,3.376,0.512,6.756,3.25c0.578,0.469,1.112,0.907,1.61,1.315
	c3.552,2.915,5.202,4.266,7.767,4.195c0.098,0.002,0.191,0.023,0.278,0.058c2.061-0.847,3.762-2.192,4.777-4.325
	C121.075,296.764,119.294,287.865,118.82,285.86z M128.558,274.137c-2.563-7.689-6.104-7.77-6.196-7.772
	c-0.301,0.032-0.61-0.193-0.7-0.503c-0.031-0.105-3.131-10.576-7.298-12.574c-4.185-2.007-6.806-1.593-10.767,0.017
	c-0.286,0.117-0.617,0.031-0.811-0.212c-0.039-0.048-1.047-1.254-2.446-0.699c-1.204,0.475-5.33,3.528-6.514,9.872
	c1.79-1.171,3.095-2.283,3.436-2.769c0.13-0.186,0.343-0.498,0.57-0.498c0.001,0,0.003,0,0.003,0c0.226,0,0.438,0.309,0.569,0.492
	c0.043,0.06,4.413,6.225,7.51,7.402c0.212,0.081,0.373,0.31,0.429,0.53c0.028,0.109,2.868,10.985,9.096,16.04
	c0.956,0.776,2.045,1.133,3.138,1.007c1.195-0.137,2.362-0.828,3.202-1.907c0.237-0.307,0.678-0.358,0.982-0.12
	c0.305,0.237,0.36,0.679,0.123,0.983c-0.736,0.946-1.683,1.656-2.711,2.07c0.226,0.926,0.718,3.222,0.873,6.197
	c1.28-1.043,3.296-3.338,2.922-7.296c-0.032-0.337,0.185-0.649,0.511-0.74c0.027-0.008,2.688-0.771,3.973-3.186
	C129.358,278.775,129.393,276.643,128.558,274.137z M238.847,288.187l-12.296-11.648c-1.529,0.743-5.105,2.223-9.396,2.223
	c-1.223,0-2.502-0.12-3.808-0.411c-4.437-0.991-6.885-2.324-8.14-3.235c-0.16,4.558,2.014,8.92,6.493,12.983
	c0.747,0.678,1.542,1.406,2.365,2.16c3.009,2.758,7.938,7.275,10.88,9.332l1.725-5.146c0.065-0.213,0.132-0.402,0.198-0.6
	l-7.041-7.359c-0.111-0.117-0.179-0.269-0.192-0.43c-0.008-0.105-0.055-1.044,0.835-1.865c1.228-1.131,3.572-1.428,6.974-0.881
	c0.135,0.023,0.261,0.083,0.362,0.176l6.178,5.678c0.215,0.049,0.407,0.186,0.496,0.405c0.011,0.027,0.023,0.055,0.034,0.082
	l3.674,3.377C238.031,290.874,238.556,289.019,238.847,288.187z M228.003,294.87l-1.839,5.487c0.432,0.23,0.765,0.346,0.972,0.305
	c1.512-0.461,3.572-2.895,4.507-7.147c0.395-1.795-0.14-2.984-0.66-3.12C230.38,290.22,229.09,291.298,228.003,294.87z
	 M205.141,247.336c0.592,3.337,1.035,5.8,1.048,5.873c0.008,0.045,0.012,0.09,0.011,0.136c-0.003,0.232-0.039,2.34-0.112,5.155
	c0.001,0.005,0.003,0.008,0.003,0.014c0,0.007-0.004,0.012-0.004,0.019c-0.126,4.853-0.36,11.787-0.732,14.896
	c0.575,0.557,2.746,2.313,8.297,3.554c5.819,1.304,11.25-1.175,12.64-1.884c0.017-1.956,0.242-6.986,1.79-14.755
	c-1.212,0.303-2.64,0.476-4.025,0.476c-0.001,0-0.001,0-0.001,0c-2.788,0-7.819-0.671-10.176-5.162
	c-1.225-2.332-1.306-4.097-1.206-5.066c-1.367-0.416-2.515-1.944-2.983-3.529L205.141,247.336z M204.67,259.088l-9.571-0.079
	c1.778,3.589,5.169,10.894,8.942,19.132c-0.277-1.508-0.323-3.034-0.115-4.567C204.295,270.854,204.537,264.059,204.67,259.088z
	 M233.633,250.667c0-1.971,0.657-3.487,1.248-4.451c-1.842-0.128-5.157-0.798-8.318-3.683c-0.975,1.905-3.715,5.912-9.428,5.649
	c-0.364-0.017-0.655-0.311-0.668-0.675c-0.006-0.159-0.175-3.88-3.122-3.88c-0.23,0-0.476,0.021-0.73,0.064
	c-1.262,0.211-1.849,0.945-1.746,2.185c0.132,1.602,1.481,3.428,2.532,3.428c0.23,0,0.494,0.111,0.625,0.3
	c0.13,0.189,0.21,0.428,0.129,0.643c-0.003,0.01-0.592,1.797,0.964,4.763c2.015,3.838,6.464,4.412,8.937,4.412h0.001
	c1.703,0,3.458-0.277,4.697-0.741C231.768,257.548,233.633,253.64,233.633,250.667z M234.298,225.668
	c0.134,0.729,0.617,2.091,1.211,3.359c0.057,0.122,0.078,0.258,0.06,0.391l-0.515,3.81c0.488,0.207,0.995,0.325,1.569,0.451
	c0.851,0.187,1.813,0.402,2.9,0.996c1.167-5.41,1.251-8.948,0.219-10.475c-0.326-0.482-0.754-0.751-1.346-0.843
	c-1.977-0.308-2.494,2.147-2.515,2.251c-0.048,0.241-0.22,0.439-0.452,0.521c-0.232,0.082-0.49,0.037-0.68-0.12
	C234.566,225.859,234.417,225.748,234.298,225.668z M213.186,242.24c0.052-0.001,0.109-0.014,0.16-0.014
	c3.055,0,4.202,2.694,4.462,4.566c5.919-0.091,7.843-5.625,7.862-5.682c0.078-0.232,0.271-0.406,0.509-0.46
	c0.24-0.054,0.488,0.02,0.658,0.196c3.481,3.606,7.305,3.995,8.788,3.995c0.318,0,0.509-0.018,0.56-0.022
	c0.434-0.073,1.679-0.382,2.37-0.952c0.298-0.246,0.74-0.204,0.985,0.095c0.246,0.298,0.204,0.739-0.095,0.985
	c-0.907,0.748-2.248,1.09-2.793,1.206c-0.304,0.352-1.107,1.425-1.452,3.049c1.114-1.355,2.625-2.937,3.804-3.218
	c0.852-0.203,2.82-1.805,3.475-3.813c0.455-1.394,0.182-2.691-0.812-3.855c-2.2-2.579-3.799-2.931-5.345-3.271
	c-0.697-0.153-1.417-0.312-2.136-0.671c-0.44-0.22-1-0.632-1.708-1.154c-1.985-1.463-4.985-3.674-7.499-3.107
	c-1.209,0.274-2.2,1.162-3.029,2.714c-0.134,0.252-0.408,0.403-0.692,0.366c-1.44-0.152-4.005-0.077-4.756,0.778
	C214.266,236.524,213.162,239.303,213.186,242.24z M202.03,228.851c0.152,1.618,1.701,10.52,2.864,17.098l4.577-0.275
	c-0.017-1.303,0.531-2.319,1.553-2.897l-1.281-13.027c-0.017-0.168,0.029-0.337,0.127-0.475c1.064-1.493,1.904-3.235,1.763-3.656
	c-0.191-0.059-0.904,0.282-1.405,0.685c-0.222,0.18-0.534,0.204-0.783,0.064c-0.249-0.141-0.388-0.419-0.35-0.704
	c0.001-0.004,0.111-0.992-0.537-1.739c-0.524-0.605-1.419-0.927-2.66-0.956c-1.211-0.033-2.118,0.295-2.764,0.989
	C201.853,225.333,201.936,227.838,202.03,228.851z M192.01,254.422c0.775,0.753,1.33,1.543,1.806,2.219l0.089,0.12
	c0.118,0.167,0.323,0.537,0.603,1.077l10.19,0.152c0.061-2.419,0.094-4.231,0.1-4.6c-0.118-0.653-0.814-4.528-1.605-9.02
	c-0.27,0.119-0.577,0.162-0.89,0.103c-1.331-0.257-5.163-0.506-6.851,1.388c-1.672,1.877-2.694,6.182-2.946,7.682
	C192.447,253.899,192.263,254.202,192.01,254.422z M161.751,255.959c0.033,0.39-0.089,0.754-0.311,1.041h14.929l-1.349-3.284
	c-0.078-0.189-0.069-0.46,0.023-0.642c0.093-0.182,0.26-0.343,0.459-0.392c0.593-0.145,1.159-0.268,1.713-0.382
	c-1.518-2.809-5.811-9.242-9.741-9.313c-1.33-0.044-2.379,0.407-3.231,1.317C161.623,247.105,161.555,253.667,161.751,255.959z
	 M165.076,334H162c-0.829,0-1.5-0.672-1.5-1.5s0.671-1.5,1.5-1.5h3.051l-0.066-8H162c-0.829,0-1.5-0.672-1.5-1.5s0.671-1.5,1.5-1.5
	h2.96l-0.083-10H162c-0.829,0-1.5-0.672-1.5-1.5s0.671-1.5,1.5-1.5h2.852l-0.066-8H162c-0.829,0-1.5-0.672-1.5-1.5
	s0.671-1.5,1.5-1.5h2.761l-0.075-9H162c-0.829,0-1.5-0.672-1.5-1.5s0.671-1.5,1.5-1.5h2.661l-0.038-4.578
	c-0.125-0.127-0.203-0.301-0.203-0.493c0-0.186,0.076-0.354,0.195-0.479l-0.02-2.45H162c-0.829,0-1.5-0.672-1.5-1.5
	s0.671-1.5,1.5-1.5h2.57l-0.07-8.412c-0.001-0.137,0.054-0.269,0.153-0.364c0.099-0.095,0.234-0.154,0.37-0.139l14.528,0.659
	L176.779,258h-17.275l0.167,20.779c0.01,0.048,0.029,0.093,0.029,0.144c0,0.047-0.018,0.087-0.027,0.131l0.49,60.946h4.963
	L165.076,334z M192.252,307l-0.218-8h-26.249l0.066,8H192.252z M165.877,310l0.083,10h26.647l-0.273-10H165.877z M188.635,286.854
	C188.441,286.945,188.228,287,188,287h-22.314l0.075,9h26.191l-0.031-1.148L188.635,286.854z M187.462,284l-1.786-4.348
	l-20.051-0.021l0.036,4.369H187.462z M185.1,278.252l-1.089-2.65c-0.267,0.245-0.62,0.398-1.011,0.398h-17.405l0.019,2.23
	L185.1,278.252z M182.942,273l-2.974-7.236l-14.464-0.656L165.57,273H182.942z M192.907,331l-0.219-8h-26.704l0.066,8H192.907z
	 M198.055,309.782l-4.478-10.898c-0.167,0.07-0.351,0.108-0.543,0.112l0.218,8.004H195c0.829,0,1.5,0.672,1.5,1.5
	s-0.671,1.5-1.5,1.5h-1.666l0.273,10H195c0.829,0,1.5,0.672,1.5,1.5s-0.671,1.5-1.5,1.5h-1.311l0.218,8H195
	c0.829,0,1.5,0.672,1.5,1.5s-0.671,1.5-1.5,1.5h-1.011l0.164,6H198v-30C198,309.921,198.022,309.848,198.055,309.782z
	 M236.805,321.648c-6.12-8.178-15.425-4.495-15.819-4.335c-0.347,0.142-0.749-0.016-0.904-0.361
	c-8.811-19.635-25.861-57.317-27.321-59.393l-0.091-0.129c-1.756-2.5-4.391-6.25-16.043-3.604l17.641,42.878
	c0.093,0.147,0.163,0.31,0.2,0.485l17.667,42.942l28.413-0.074C240.901,338.391,242.486,329.241,236.805,321.648z M241.982,340.055
	l25.655-0.067c0.078-6.53-10.532-10.768-15.104-12.596c-0.794-0.316-1.433-0.568-1.848-0.763
	c-3.012-1.419-14.658-29.576-17.349-36.162l-6.321-5.809c-3.717-0.569-5.1,0.103-5.595,0.56c-0.212,0.196-0.309,0.396-0.353,0.536
	l6.354,6.641c1.585-3.599,3.349-3.505,3.917-3.354c1.468,0.384,2.188,2.438,1.673,4.775c-0.919,4.18-3.119,7.47-5.474,8.188
	c-0.124,0.037-0.258,0.057-0.404,0.057c-1.934,0-5.902-3.337-14.014-10.771c-0.821-0.752-1.615-1.479-2.36-2.155
	c-1.302-1.181-2.425-2.402-3.368-3.655c6.124,13.45,12.3,27.192,13.705,30.32c2.406-0.755,11.017-2.755,16.83,5.013
	C243.748,328.592,242.471,337.615,241.982,340.055z M253.377,317.319l-11.29-22.007c-0.502,0.555-1.027,0.888-1.572,0.951
	c-0.068,0.008-0.135,0.012-0.201,0.012c-0.514,0-0.931-0.231-1.146-0.449l-3.399-3.124c6.507,15.742,13.819,31.806,15.514,32.665
	c0.396,0.186,1.009,0.431,1.77,0.734c4.839,1.935,16.057,6.406,15.984,13.883l6.301-0.017c0.141-3.104,0.363-16.474-5.973-19.503
	c-7.403-3.539-15.213-2.776-15.292-2.769C253.791,317.729,253.509,317.576,253.377,317.319z M240.365,288.051
	c-0.005,0.075-0.025,0.146-0.053,0.213c-0.002,0.005-0.001,0.01-0.003,0.015c-0.013,0.03-1.304,3.079-0.465,6.206
	c0.006,0.021,0.001,0.043,0.004,0.064l0.293,0.27c0.024,0.021,0.103,0.075,0.233,0.052c0.161-0.027,0.603-0.202,1.229-1.233
	c1.214-2.001,3.097-5.962,2.452-8.12c-0.161-0.537-0.475-0.911-0.961-1.143c-0.755-0.359-1.132-0.143-1.255-0.069
	C240.816,284.898,240.422,287.267,240.365,288.051z M239.252,286.22l-3.546-6.786c-0.052-0.066-0.091-0.141-0.117-0.224
	l-7.036-13.465c-0.833,5.549-0.87,8.985-0.86,9.947l11.477,10.873C239.194,286.455,239.223,286.338,239.252,286.22z M317.665,222.92
	c2.685-0.684,9.195-1.89,16.673-0.091c0.923-1.46,1.412-3.134,1.412-4.851c0-5.169-4.391-9.375-9.788-9.375
	c-5.397,0-9.789,4.206-9.789,9.375C316.173,219.741,316.699,221.437,317.665,222.92z M320.906,228.587
	c0.376-0.347,0.845-0.587,1.378-0.587h8.622c0.555,0,1,0.249,1.341,0.603c2.477-1.707,2.765-3.79,2.77-4.58
	c-8.413-2.289-15.933-0.476-17.862,0.074C317.971,226.154,320.202,228.031,320.906,228.587z M322.284,231h8.622
	c1.094,0,1.094-0.338,1.094-0.52c0-0.556-0.415-1.48-1.094-1.48h-8.622c-0.728,0-1.284,0.951-1.284,1.427
	C321,230.949,321.898,231,322.284,231z M304.73,255.849l-0.025,5.757c14.099-2.519,24.632-15.026,24.632-29.439
	c0-0.059,0.02-0.112,0.034-0.167h-5.697c0.015,0.055,0.034,0.108,0.034,0.167C323.708,243.531,315.758,253.388,304.73,255.849z
	 M290.577,213.142c2.812-0.75,9.685-2.085,17.584-0.104c0.983-1.614,1.505-3.47,1.505-5.372c0-5.698-4.635-10.333-10.332-10.333
	c-5.698,0-10.334,4.635-10.334,10.333C289,209.618,289.548,211.501,290.577,213.142z M294.304,219.331
	c0.346-0.201,0.736-0.331,1.157-0.331h9.078c0.496,0,0.954,0.171,1.34,0.436c2.753-1.927,3.019-4.323,3.016-5.179
	c-8.93-2.54-16.906-0.505-18.875,0.085C290.886,216.62,293.478,218.708,294.304,219.331z M295.461,222h8.713
	c0.001,0,0.002,0,0.003,0h0.362c0.343,0,1.461-0.044,1.461-0.619c0-0.581-0.654-1.381-1.461-1.381h-9.078
	c-0.807,0-1.461,0.8-1.461,1.323C294,221.955,295.118,222,295.461,222z M263.665,222.92c2.684-0.685,9.192-1.89,16.672-0.092
	c0.922-1.459,1.413-3.134,1.413-4.85c0-5.169-4.391-9.375-9.788-9.375c-5.398,0-9.789,4.206-9.789,9.375
	C262.173,219.741,262.7,221.437,263.665,222.92z M267.044,228.468c0.351-0.28,0.771-0.468,1.24-0.468h8.622
	c0.554,0,1,0.249,1.341,0.603c2.476-1.707,2.765-3.79,2.77-4.58c-8.41-2.289-15.927-0.478-17.861,0.073
	C263.988,226.146,266.328,227.95,267.044,228.468z M268.284,231h8.622c1.094,0,1.094-0.338,1.094-0.52
	c0-0.556-0.415-1.48-1.094-1.48h-8.622c-0.729,0-1.284,0.951-1.284,1.427C267,230.949,267.898,231,268.284,231z M294.854,261.724
	L294.829,256c-11.429-2.188-19.688-12.138-19.688-23.833c0-0.059,0.02-0.112,0.034-0.167h-5.697
	c0.014,0.055,0.034,0.108,0.034,0.167C269.512,246.909,280.364,259.501,294.854,261.724z M205.706,389.822
	c0.053,2.163,0.581,3.907,1.347,4.46l68.639,0.533c0.003-0.012,0-0.024,0.003-0.036c0.894-3.006,2.411-11.16-1.26-12.765
	c-1.375-0.602-2.548-0.682-3.488-0.236c-1.434,0.677-1.934,2.381-1.939,2.399c-0.1,0.351-0.455,0.566-0.814,0.494
	c-0.359-0.073-0.601-0.41-0.554-0.773c0.074-0.573,1.602-14.082-15.47-19.364c-6.528-2.021-11.827-1.692-15.75,0.973
	c-3.981,2.703-5.179,6.977-5.222,7.528c-0.022,0.29-0.224,0.536-0.503,0.617c-0.281,0.081-0.582-0.021-0.756-0.254
	c-0.164-0.219-4.063-5.322-9.616-2.459c-3.752,1.936-4.927,4.949-5.293,6.573c-0.387,1.716-0.168,3.167,0.248,3.714
	c0.163,0.214,0.189,0.503,0.066,0.743c-0.123,0.24-0.363,0.391-0.642,0.381c-0.05-0.007-5.262-0.122-7.403,1.537
	C206.308,384.651,205.639,387.148,205.706,389.822z M182.666,394.093l8.153,0.064l-3.762-6.645c-0.19-0.336-0.072-0.764,0.265-0.954
	c0.335-0.191,0.763-0.072,0.954,0.265l3.991,7.049c0.053,0.095,0.077,0.195,0.084,0.297l1.533,0.012
	c-0.055-0.081-0.1-0.17-0.117-0.273l-1.307-7.844c-0.064-0.382,0.194-0.742,0.575-0.806c0.379-0.067,0.742,0.193,0.806,0.575
	l1.307,7.844c0.031,0.188-0.017,0.369-0.117,0.513l10.232,0.08c-0.783-1.434-0.934-3.441-0.958-4.411
	c-0.01-0.406,0.003-0.839,0.027-1.279c-0.735-1.518-7.552-14.998-17.077-13.766c-5.933,0.769-11.388,5.649-11.912,10.659
	c-0.392,3.751,2.172,6.792,7.221,8.561C182.604,394.047,182.632,394.074,182.666,394.093z M302.916,384.41
	c-0.092-0.123-0.142-0.273-0.142-0.426L303.473,223h-7.386l0.698,160.96c0.001,0.153-0.049,0.315-0.142,0.438l-7.958,10.518
	l22.318,0.174L302.916,384.41z M356.736,278.421l2.457,0.002l-3.271-6.541c-0.173-0.347-0.033-0.767,0.312-0.939
	c0.349-0.175,0.768-0.032,0.939,0.312l3.324,6.648l-0.527-4.491c-0.045-0.385,0.23-0.732,0.613-0.777
	c0.39-0.038,0.731,0.23,0.777,0.613l0.607,5.176l2.217,0.002c0.564-1.243,2.215-5.646,0.037-10.684
	c-1.406-3.251-3.489-4.638-4.99-5.228c-1.779-0.698-3.519-0.598-4.452-0.189c-1.149,0.504-5.482,3.141-5.697,6.838
	C348.908,272.204,351.484,275.318,356.736,278.421z M337.553,278.396l6.96-0.009l-2.818-3.131c-0.26-0.286-0.238-0.781,0.048-1.041
	c0.287-0.259,0.728-0.345,0.989-0.056l3.674,3.84h0.267l-1.299-2.406c-0.172-0.346-0.031-0.559,0.315-0.73
	c0.345-0.173,0.767-0.03,0.939,0.315l1.609,3.237l5.875,0.004c-3.936-2.674-6.072-5.435-6.387-8.239
	c-0.351-0.501-2.267-2.964-5.535-2.042c-2.251,0.633-5.12,3.236-5.805,6.104C335.994,275.876,336.393,277.262,337.553,278.396z
	 M373.107,278.261c0.643-0.931,1.494-1.647,2.638-2.512c0.45-0.34,0.9-0.62,1.35-0.853l0,0c0.062-0.04,6.162-4.114,7.482-10.927
	c0.82-4.235-0.352-8.679-3.483-13.181c-3.633-5.222-9.007-4.87-12.824-2.77c-4.832,2.657-8.358,8.525-5.833,14.739
	c1.108,0.958,2.21,2.22,3.073,4.216c2.154,4.982,0.965,10.025,0.204,11.025h2.538l1.556-10.718c0.056-0.384,0.411-0.49,0.792-0.434
	c0.383,0.055,0.649,0.303,0.595,0.685L369.666,278h0.284l2.256-6.912c0.116-0.367,0.506-0.413,0.88-0.294
	c0.368,0.117,0.571,0.404,0.454,0.772L371.42,278h1.453C372.956,278,373.033,278.234,373.107,278.261z M366.494,314.005
	c3.637,1.831,6.876,1.858,8.668,0.072c0.543-0.541,0.744-1.121,0.632-1.825c-0.602-3.777-9.696-9.194-13.502-11.153
	c-1.433,1.314-2.518,2.788-2.745,4.337C359.159,308.084,362.211,311.848,366.494,314.005z M393.115,333.666
	c0,0.693,0.068,1.384,0.172,2.065l5.12-2.048c0.246-0.097,0.528-0.049,0.727,0.129c0.198,0.178,0.278,0.452,0.208,0.708
	c-0.193,0.697-1.273,4.46-3.005,7.896c2.572,3.023,6.316,4.759,10.288,4.759c7.449,0,13.51-6.061,13.51-13.51
	c0-7.449-6.061-13.51-13.51-13.51C399.176,320.156,393.115,326.217,393.115,333.666z M391.575,337.556l-31.32-23.904l-8.526,11.433
	c-0.216,0.289-0.615,0.366-0.924,0.18l-8.917-5.389l-8.915,8.525l3.738,0.234c0.227,0.014,0.434,0.138,0.553,0.332
	c0.069,0.112,7.024,11.279,13.335,10.67c6.061-0.593,12.866-7.899,13.771-8.9l-7.258-4.82c-0.321-0.214-0.409-0.648-0.195-0.971
	c0.214-0.32,0.648-0.408,0.971-0.195l33.192,22.046c2.806-1.33,5.338-7.651,6.499-11.273l-5.319,2.127
	C392.031,337.741,391.771,337.707,391.575,337.556z M386.645,305.988c-0.382-0.004-0.743-0.026-1.104-0.05
	c-0.236,0.503-0.709,1.24-1.593,1.752c-0.661,0.383-1.43,0.574-2.297,0.574c-0.669,0-1.396-0.114-2.179-0.342
	c-1.625-0.473-2.703-1.305-3.204-2.475c-0.556-1.295-0.223-2.62,0.026-3.302c-2.406-2.373-3.318-5.205-3.624-6.536
	c-0.445,0.065-0.866,0.053-1.274,0.008c-0.765,0.317-4.784,2.044-7.945,4.505c3.106,1.643,12.976,7.199,13.727,11.908
	c0.181,1.139-0.174,2.188-1.026,3.038c-1.153,1.148-2.732,1.725-4.565,1.725c-1.728,0-3.682-0.512-5.72-1.538
	c-1.573-0.792-3.141-1.894-4.45-3.158l-0.322,0.432l15.821,12.075C385.867,317.966,386.613,308.514,386.645,305.988z
	 M377.453,303.155c-0.11,0.498-0.157,1.147,0.104,1.749c0.33,0.763,1.105,1.326,2.305,1.675c1.419,0.412,2.559,0.378,3.384-0.101
	c0.349-0.201,0.596-0.459,0.771-0.699C381.205,305.37,379.065,304.388,377.453,303.155z M399.153,286.009
	c-4.821,4.243-9.926,2.373-11.615,1.558c-1.064,1.385-4.237,5.136-7.472,5.276c-1.393,0.061-2.597-0.522-3.603-1.728
	c-0.083-0.099-0.138-0.221-0.156-0.35c-0.004-0.027-0.421-2.783-2.205-3.847c-0.897-0.536-2.037-0.556-3.383-0.064
	c-2.53,0.927-2.829,3.087-2.315,4.655c0.565,1.729,2.259,3.28,4.626,2.591c0.064-0.018,0.129-0.027,0.193-0.027
	c0.137,0,0.272,0.041,0.39,0.118c0.171,0.114,0.283,0.299,0.307,0.504c0.028,0.252,0.507,3.953,3.608,6.758
	c0.049,0.037,0.099,0.074,0.135,0.122c1.994,1.743,5.031,3.108,9.658,3.021c6.917-0.134,10.102-4.436,11.384-6.989
	C400.619,293.792,400.77,288.987,399.153,286.009z M401.217,280h-0.107c-0.387,0-0.7-0.363-0.7-0.748
	c0-0.184,0.074-0.396,0.189-0.521c-0.545-0.53-1.269-0.731-1.482-0.731c-0.004,0-0.008,0-0.011,0c-0.219,0-0.425-0.076-0.593-0.221
	c-0.168-0.143-0.24-0.394-0.226-0.614c0.005-0.071,0.436-7.147-3.701-7.458c-2.574-0.19-4.525,0.311-5.808,1.515
	c-1.209,1.136-1.807,2.9-1.776,5.252c0.003,0.269-0.149,0.513-0.389,0.633c-0.241,0.119-0.529,0.09-0.741-0.074
	c-0.192-0.148-4.74-3.597-9.283-0.161c-4.238,3.206-3.996,7.463-3.914,8.228c0.782,0.024,1.501,0.233,2.151,0.622
	c2.042,1.224,2.683,3.862,2.831,4.637c0.691,0.771,1.459,1.136,2.349,1.09c2.657-0.115,5.776-3.774,6.754-5.176
	c0.214-0.307,0.633-0.385,0.947-0.186c0.238,0.146,5.856,3.589,11.084-1.631c0.005-0.006,0.011,0.012,0.017,0.006
	C400.591,282.674,401.412,281,401.217,280z M441.906,278.527l-3.701-7.645c-0.16-0.331-0.182-0.69-0.098-1.022
	c-1.535-0.154-2.941-0.551-3.998-1.326c-1.029-0.756-1.625-1.791-1.77-3.076c-0.222-1.965,0.49-3.247,1.42-4.051
	c-0.145-0.127-0.274-0.273-0.363-0.458l-18.168-37.514c-2.081,3.965-2.275,8.87-2.278,8.952l-0.448,46.122L441.906,278.527z
	 M458.725,242.665c-1.058-0.56-2.083-0.553-2.811,0.018c-0.781,0.611-1.056,1.744-0.735,3.032c0.164,0.663,0.473,1.104,0.943,1.346
	c1.052,0.543,2.606-0.039,2.623-0.045c0.083-0.033,0.169-0.049,0.256-0.049c0.132,0,0.263,0.038,0.377,0.11
	c0.188,0.121,0.308,0.324,0.322,0.548c0.094,1.574,0.928,3.078,2.35,4.233c2.284,1.855,5.66,2.569,9.517,2
	c4.583-0.675,6.188-3.392,6.756-5.202c0.005-0.021,0.013-0.041,0.021-0.062c0.265-0.875,0.291-1.527,0.292-1.605
	c0.005-0.224,0.116-0.433,0.299-0.561c0.184-0.128,0.418-0.162,0.629-0.09c0.777,0.267,3.034,0.753,4.144-0.18
	c0.68-0.572,0.897-1.661,0.645-3.236c-0.141-0.88-0.315-1.424-0.477-1.761c-0.028-0.042-0.052-0.088-0.07-0.136
	c-0.2-0.356-0.367-0.402-0.4-0.408c-0.527-0.08-1.74,1.261-2.458,2.538c-0.093,0.165-0.247,0.285-0.43,0.334
	c-0.184,0.049-0.377,0.021-0.539-0.075c-2.36-1.407-3.43-5.528-3.818-7.518c-2.511,1.604-9.689,5.744-16.324,5.193l-0.084,1.016
	c-0.018,0.234-0.155,0.443-0.361,0.557C459.182,242.773,458.934,242.775,458.725,242.665z M459.421,239.638
	c7.64,0.955,16.751-5.43,16.841-5.495c0.12-0.085,0.263-0.129,0.405-0.129c0.095,0,0.19,0.019,0.28,0.059
	c0.225,0.098,0.382,0.307,0.414,0.55c0.2,1.534,1.067,5.513,2.781,7.161c0.702-1.063,2.079-2.804,3.506-2.546
	c0.026,0.004,0.052,0.01,0.077,0.016c-0.233-5.838-1.812-8.303-3.154-9.342c-1.509-1.169-3.009-0.799-3.022-0.794
	c-0.252,0.066-0.52-0.015-0.693-0.207c-2.534-2.786-5.289-4.188-8.26-4.146c-5.42,0.065-9.69,4.919-9.732,4.968
	c-0.14,0.161-0.343,0.243-0.555,0.241c-2.942-0.115-4.805,1.167-4.984,3.405C453.114,235.998,455.385,239.134,459.421,239.638z
	 M501.74,259.63c0.395-0.636,0.74-1.571,0.61-1.871c-0.014-0.03-0.065-0.055-0.154-0.072c-0.847-0.164-2.024,1.479-2.425,2.259
	c-0.136,0.266-0.429,0.418-0.72,0.374c-6.576-0.921-16.88-8.278-19.737-10.398c-0.056,0.128-0.111,0.256-0.176,0.387l0.991,8.405
	c1.126,1.051,7.869,7.168,13.504,8.265c4.689,0.912,8.235,0.709,9.983-0.572c0.711-0.523,1.106-1.211,1.207-2.104
	c0.355-3.157-2.468-3.593-2.588-3.609c-0.234-0.033-0.437-0.183-0.536-0.397C501.6,260.082,501.615,259.831,501.74,259.63z
	 M458.574,273.539L480.313,273c0.007,0,0.014,0,0.021,0c0.025,0,0.047,0.006,0.072,0.007l-2.465-20.89
	c-1.081,1.255-2.724,2.395-5.219,2.946c-0.104,0.63-0.496,2.404-1.714,3.351c-0.524,0.408-1.126,0.614-1.791,0.614
	c-0.156,0-0.315-0.011-0.478-0.034c-2.539-0.352-3.292-2.664-3.363-3.997c-1.602-0.41-3.03-1.093-4.211-2.053
	c-0.209-0.17-0.404-0.348-0.592-0.53L458.574,273.539z M468.932,257.574c0.476,0.066,0.872-0.015,1.215-0.279
	c0.59-0.457,0.926-1.336,1.095-1.993c-0.745,0.089-1.479,0.145-2.189,0.145c-0.77,0-1.517-0.053-2.234-0.157
	C466.945,256.043,467.385,257.36,468.932,257.574z M459.32,250.862c-2.735,2.035-13.176,9.527-19.817,10.457
	c-0.289,0.046-0.583-0.108-0.719-0.373c-0.402-0.779-1.586-2.43-2.426-2.26c-0.089,0.018-0.141,0.042-0.154,0.072
	c-0.13,0.303,0.215,1.237,0.61,1.87c0.125,0.201,0.141,0.452,0.041,0.667c-0.101,0.215-0.302,0.364-0.537,0.397
	c-0.298,0.045-2.935,0.534-2.588,3.609c0.101,0.893,0.496,1.581,1.207,2.104c1.748,1.281,5.294,1.485,9.983,0.572
	c5.719-1.113,12.59-7.406,13.56-8.317l0.821-8.676c0.004-0.036,0.022-0.066,0.03-0.1
	C459.328,250.878,459.324,250.869,459.32,250.862z M456.695,278.536l1.591-16.81c-2.471,2.165-8.067,6.647-13.098,7.627
	c-1.27,0.247-2.698,0.457-4.129,0.544l4.18,8.632L456.695,278.536z M483.639,300.416l-3.09-26.192
	c-0.062,0.023-0.125,0.05-0.194,0.052l-21.917,0.706l-2.406,25.42c-0.03,0.312-0.266,0.567-0.574,0.623
	c-0.026,0.005-2.306,0.434-3.155,1.967l11.103,0.293c0.516-3.19,2.908-17.522,4.855-21.272c0.119-0.23,0.356-0.376,0.615-0.378
	c0.246-0.022,0.499,0.14,0.622,0.368c0.056,0.102,5.507,10.281,8.059,21.283l11.543-0.296c-0.217-0.61-0.637-1.433-1.406-1.904
	c-0.8-0.489-1.853-0.519-3.136-0.088c-0.198,0.067-0.417,0.04-0.598-0.071C483.781,300.812,483.663,300.625,483.639,300.416z
	 M532.631,278.656c0.252-16.951,0.396-38.048-0.244-46.296c-0.119-1.526-0.33-2.873-0.604-4.075l-1.797-3.685
	c-0.188-0.386-0.192-0.811-0.053-1.184c-2.672-4.537-6.478-4.649-6.533-4.649c-0.896-0.006-91.021-0.604-101.019-0.295
	c-2.209,0.068-3.901,0.953-5.198,2.245c0.083,0.096,0.159,0.201,0.217,0.32l17.8,36.754c0.19-0.206,0.461-0.393,0.884-0.478
	c1.727-0.342,3.127,1.606,3.693,2.543c6.46-1.19,16.725-8.641,18.923-10.28c-0.122-0.333-0.223-0.671-0.29-1.017
	c-0.769,0.162-1.931,0.261-2.931-0.255c-0.837-0.432-1.395-1.189-1.66-2.252c-0.457-1.839,0.003-3.511,1.231-4.472
	c0.929-0.727,2.142-0.913,3.383-0.542l0.012-0.144c-4.352-0.912-6.763-4.336-6.516-7.41c0.177-2.198,1.87-4.484,6.04-4.484
	c0.021,0,0.041,0,0.062,0c1.007-1,5.186-5.354,10.548-5.418c3.254-0.022,6.305,1.308,9.054,4.216
	c0.73-0.076,2.277-0.113,3.796,1.062c2.449,1.896,3.702,5.838,3.726,11.77c0.366,0.777,0.51,1.659,0.578,2.085
	c0.335,2.096-0.045,3.614-1.13,4.524c-1.383,1.16-3.507,0.909-4.672,0.651c-0.033,0.188-0.082,0.406-0.141,0.638
	c2.061,1.54,12.466,9.126,18.988,10.329c0.566-0.938,1.964-2.885,3.693-2.543c0.705,0.142,1.022,0.562,1.164,0.891
	c0.312,0.724,0.028,1.667-0.274,2.346c1.456,0.547,3.184,1.984,2.853,4.909c-0.145,1.285-0.74,2.32-1.77,3.076
	c-1.426,1.046-3.486,1.405-5.645,1.405c-1.852,0-3.775-0.265-5.435-0.587c-4.952-0.964-10.46-5.328-12.987-7.53l2.097,17.775
	L532.631,278.656z M556.358,278.682l-20.767-42.585c0.403,9.944,0.268,27.812,0.047,42.561L556.358,278.682z M467.835,246.79
	c-0.054-0.662,0.089-1.182,0.424-1.544c0.31-0.336,0.773-0.514,1.338-0.514c0.451,0,0.823,0.111,0.864,0.124
	c0.081,0.025,0.155,0.071,0.214,0.133c1.285,1.352,1.984,3.421,1.591,4.711c-0.183,0.598-0.594,0.996-1.157,1.122
	c-0.153,0.034-0.307,0.051-0.458,0.051C468.932,250.873,467.997,248.822,467.835,246.79z M468.831,246.71
	c0.157,1.961,1.041,3.364,2.061,3.135c0.131-0.029,0.316-0.106,0.417-0.436c0.244-0.801-0.216-2.459-1.263-3.627
	c-0.105-0.022-0.271-0.05-0.449-0.05c-0.194,0-0.456,0.033-0.603,0.192C468.822,246.11,468.81,246.454,468.831,246.71z
	 M388.929,299.908c0.15,0.093,0.241,0.257,0.238,0.433c-0.003,0.177-0.098,0.339-0.251,0.427c-1.178,0.679-2.139,1.009-2.936,1.009
	c-0.674,0-1.235-0.25-1.621-0.721c-0.947-1.155-0.562-3.251-0.516-3.486c0.032-0.161,0.141-0.295,0.29-0.36
	c0.151-0.066,0.322-0.053,0.462,0.032L388.929,299.908z M387.658,300.301l-2.921-1.798c-0.034,0.643,0.021,1.466,0.395,1.92
	c0.198,0.241,0.468,0.353,0.848,0.353C386.428,300.776,386.99,300.616,387.658,300.301z"></path>
</svg>